<svg viewBox="0 0 32 32" xml:space="preserve" xmlns="http://www.w3.org/2000/svg"><path d="M392.362 25.522c5.687-.456 11.845-.107 17.512.48 29.492 3.056 60.209 18.852 78.862 42.14 3.965 4.95 7.82 10.082 10.993 15.578 9.696 16.793 14.662 37.123 12.515 56.48-2.72 24.538-15.275 45.47-34.48 60.687-19.644 15.565-47.546 22.652-72.31 19.686-6.227-.764-12.295-1.94-18.307-3.747-2.962-.89-5.912-1.867-8.764-3.066-.61-.257-2.812-1.442-3.275-1.412-.857.055-2.872 1.265-3.732 1.643l-12.442 5.4-22.221 9.16 2.943-30.398.779-7.3c.063-.625.358-1.908.249-2.471-.063-.327-.87-.956-1.138-1.212l-3.824-3.695a97.302 97.302 0 0 1-6.64-7.35c-13.376-16.382-23.434-36.627-24.956-57.973-1.563-21.934 5.046-43.816 19.585-60.487 12.095-13.869 29.198-23.927 46.904-28.722 7.11-1.926 14.413-2.918 21.747-3.42z" style="display:inline;fill:#fff;fill-opacity:1;stroke:#000;stroke-width:5.79108;stroke-dasharray:none;stroke-opacity:1" transform="translate(-1.68 -1.37) scale(.0611)"/><path d="M389.15 149.504c1.905-.23 3.576-.15 5.374.568 2.769 1.108 4.887 3.576 5.922 6.337.824 2.199.577 4.623-.44 6.703-1.254 2.56-3.372 3.992-6.024 4.85-2.044.343-4.265.096-6.132-.835-2.415-1.204-4.506-3.34-5.374-5.921-.735-2.19-.65-4.738.409-6.808 1.35-2.641 3.552-3.967 6.265-4.894zm23.855-53.237c1.772.185 3.44.62 4.968 1.573 1.803 1.126 3.397 2.977 3.834 5.095l.073.384.155.797a7.277 7.277 0 0 1-.304 3.53c-.938 2.81-2.431 5.52-3.597 8.254l-7.121 16.487c-1.34 3.12-2.536 7.083-4.502 9.807-1.522 2.11-3.374 2.829-5.843 3.25-1.813-.153-3.769-.308-5.362-1.28-1.888-1.152-3.534-3.406-3.942-5.595-.256-1.37-.074-2.998.342-4.308 1.273-4.002 3.382-7.967 5.04-11.843l6.258-14.406c1.237-2.859 2.348-6.24 4.107-8.795 1.336-1.94 3.699-2.567 5.894-2.95z" style="fill:#000;fill-opacity:1;stroke-width:.5" transform="translate(-1.68 -1.37) scale(.0611)"/><path d="M168.226 95.023c15.952-.922 32.24 1.434 47.563 5.735 23.181 6.508 45.887 19.634 63.077 36.488 10.337 10.133 18.966 21.815 26.023 34.423 21.635 38.654 23.855 86.58 7.053 127.414-5.226 12.702-12.65 24.955-21.095 35.747-5.027 6.425-10.436 12.302-16.228 18.04l-9.605 9.312c-5.536 5.78-10.094 12.038-14.437 18.735-3.69 5.69-7.314 11.764-9.809 18.088-1.4 3.553-2.265 7.225-3.31 10.887-2.566 8.985-8.454 14.984-16.482 19.454.656 1.047 1.287 2.11 1.674 3.29.38 1.162.667 2.506.659 3.736-.031 4.88-.94 9.96-1.442 14.83-.49 4.74-.615 9.862-1.605 14.502a11.02 11.02 0 0 1-1.068 2.963c-2.008 3.698-5.525 5.706-9.488 6.655-.25.06-1.431.228-1.581.363-.37.33-.894 1.567-1.196 2.049-1.057 1.683-2.157 3.341-3.437 4.864-7.005 8.332-16.054 13.209-26.38 16.225-3.704 1.149-7.9 1.574-11.769 1.85-10.844.775-23.27-2.303-32.341-8.369-5.675-3.793-10.811-9.263-14.508-14.976a45.293 45.293 0 0 1-2.349-4.036l-2.052-4.168c-.165-.336-.405-1.04-.71-1.265-.401-.297-1.368-.339-1.87-.526-1.057-.396-2.22-1.3-3.06-2.05-2.256-2.012-4.124-4.89-4.231-7.991-.064-1.84.235-3.8.392-5.64l1.004-10.985.708-8.315c.144-1.739.196-3.585.65-5.274.64-2.38 1.596-3.853 3.248-5.61l-4.372-3.252c-4.359-3.847-7.844-8.894-9.392-14.55-1.01-3.691-1.591-7.439-2.767-11.1-2.12-6.6-4.819-13.127-8.044-19.266-4.986-9.49-10.93-18.367-17.654-26.712l-10.902-13.11c-17.671-23.193-27.507-52.47-29.318-81.413-2.406-38.45 11.502-78.074 36.979-106.914 18.203-20.607 42.248-36.58 68.71-44.357 11.415-3.354 22.914-5.046 34.762-5.771z" style="stroke-width:.5" transform="translate(-1.68 -1.37) scale(.0611)"/><path fill="#4a4a4a" d="m118.689 468.382 83.741 6.873c-2.162 4.41-5.76 7.783-9.585 10.75l-2.39 1.598c-11.757 7.637-25.761 9.85-39.38 6.956-11.155-2.37-20.467-8.682-27.137-17.875-1.932-2.663-3.456-5.554-5.25-8.302z" style="stroke-width:.5" transform="translate(-1.68 -1.37) scale(.0611)"/><path fill="#7c7b7b" d="m109.98 445.635 106.579 9.11-.778 7.323c-.126 1.275-.11 2.954-.602 4.138-.319.769-1.022 1.465-1.574 2.079-1.652 1.265-3.202 2.171-5.341 2.372-3.204.302-6.723-.194-9.935-.444l-17.296-1.454-58.325-4.768-6.041-.52c-1.017-.097-2.307-.103-3.255-.472-.996-.387-1.958-1.365-2.626-2.176-2.187-2.655-1.671-5.245-1.42-8.406zm7.834-22.683c2.463-.256 5.029.281 7.48.497l14.203 1.18 46.026 3.746 14.937 1.197c5.244.451 10.4.979 15.674.836.754 1.11 1.805 2.564 2.105 3.892.436 1.937.043 4.215-.14 6.183l-.88 9.232-5.086-.488-101.548-8.341c.083-3.167.414-6.357.727-9.509.133-1.337.13-3.041.71-4.265 1.175-2.48 3.399-3.304 5.792-4.16z" style="stroke-width:.5" transform="translate(-1.68 -1.37) scale(.0611)"/><path fill="#06b6d4" d="m170.378 100.028 16.42.456c36.653 3.05 73.011 20.9 96.84 49.117 3.572 4.231 7.124 8.66 10.206 13.263 17.97 26.837 26.514 59.37 23.738 91.57-.806 9.36-2.343 18.895-4.95 27.928-6.786 23.515-20.164 44.5-36.819 62.231l-12.487 12.262c-6.643 6.771-12.683 14.575-17.795 22.55-3.629 5.662-6.938 12.011-9.456 18.267-1.588 3.946-2.253 8.028-3.645 12.007-1.513 4.323-4.302 8.32-7.82 11.25-2.863 2.387-6.487 4.357-10.186 5.011-3.124.552-7.182-.42-10.363-.705l-20.983-1.871-48.072-3.895-13.242-.948c-2.05-.131-4.278.05-6.284-.435-2.324-.563-4.924-2.498-6.676-4.103-3.217-2.947-5.855-6.688-7.295-10.831-.765-2.201-1.063-4.57-1.584-6.837-.608-2.646-1.432-5.218-2.315-7.784-2.262-6.577-5.096-12.873-8.304-19.038-5.214-10.018-11.967-19.524-19.133-28.238l-9.67-11.412c-3.515-4.534-6.46-9.49-9.241-14.497-10.946-19.703-17.547-42.113-18.576-64.662-1.788-39.197 12.04-76.583 38.582-105.404 18.952-20.58 44.555-35.393 71.777-41.738 9.056-2.111 18.06-3.122 27.333-3.514z" style="stroke-width:.5" transform="translate(-1.68 -1.37) scale(.0611)"/><path d="M149.998 302.292c.465-.02.322-.045.725.038.65.135 1.316.315 1.667.962.368.678.504 1.83.723 2.601.517 1.817 1.402 3.501 2.467 5.055 3.315 4.835 8.066 7.736 13.792 8.792 9.676 1.785 19.347-2.827 24.116-11.428.802-1.447 1.516-4.927 2.84-5.723.625-.374 1.068-.397 1.754-.227.67.165 1.335.728 1.622 1.355.672 1.465-.262 3.435-.788 4.82-2.934 6.337-7.976 11.543-14.423 14.34-6.63 2.874-14.476 3.028-21.18.33-6.914-2.78-11.834-7.72-14.706-14.575-.673-1.606-1.341-3.402-.64-5.09.657-.7 1.1-1.002 2.031-1.25z" style="stroke-width:.5" transform="translate(-1.68 -1.37) scale(.0611)"/><path fill="#fff" d="M102.772 286.514c.716-.167 1.678-.072 2.434-.082 2.611-.036 5.21.24 7.74.914 4.515 1.201 9.141 3.735 11.496 7.929 1.373 2.445 1.698 5.815.852 8.502l-.13.39c-.424 1.324-.955 2.484-1.782 3.604-3.573 4.841-9.469 6.76-15.181 7.62-3.194.3-6.366.167-9.505-.518-4.723-1.031-9.72-3.577-12.343-7.776-1.512-2.42-2.256-5.407-1.561-8.238l.084-.317c.45-1.76 1.044-3.285 2.177-4.729 3.787-4.83 9.871-6.644 15.72-7.3z" style="stroke-width:.5" transform="translate(-1.68 -1.37) scale(.0611)"/><path fill="#0572b4" d="M174.33 115.024c.806-.118 1.375-.104 2.181.018-1.316.496-2.914.561-4.307.806l-8.285 1.64c-13.417 3.055-26.115 6.803-38.222 13.498-13.334 7.375-25.673 16.913-35.925 28.227-9.33 10.299-17.084 22.238-23.335 34.623-4.149 8.22-7.706 16.52-10.256 25.376-.15.66-.27 1.239-.619 1.83l-.11-.125c.303-5.902.658-11.6 1.75-17.425 3.58-19.087 13.245-35.881 26.514-49.85 23.63-24.872 56.603-37.743 90.614-38.618z" style="stroke-width:.5" transform="translate(-1.68 -1.37) scale(.0611)"/><path fill="#fff" d="M242.575 286.776c6.19-.413 12.547 1.183 17.545 4.922 2.896 2.166 4.915 4.844 5.367 8.52.343 2.793-.792 5.85-2.499 8.03-3.883 4.957-10.329 6.636-16.287 7.39-6.717.544-13.963-.66-19.315-5.024-2.505-2.043-4.124-4.943-4.428-8.174-.285-3.026.884-6.108 2.852-8.384 4.182-4.838 10.579-6.856 16.765-7.28z" style="stroke-width:.5" transform="translate(-1.68 -1.37) scale(.0611)"/><path d="M114.397 210.768c7.135-.864 15.46 1.4 21.307 5.519 7.113 5.013 11.81 12.59 13.202 21.182 1.416 8.733-.735 16.678-5.866 23.773-5.336 7.379-13.183 11.144-21.968 12.514-8.61.882-16.563-1.18-23.456-6.503-6.242-4.82-10.594-12.711-11.562-20.53-1.04-8.404 1.31-17.484 6.624-24.135 5.598-7.008 12.87-10.872 21.72-11.82z" style="stroke-width:.5" transform="translate(-1.68 -1.37) scale(.0611)"/><path fill="#fff" d="M112.15 218.47c3.287-.163 6.34.538 9.087 2.397 2.727 1.844 4.65 5.096 5.155 8.34.594 3.808-.168 7.48-2.44 10.613-2.202 3.038-5.191 4.395-8.816 5.008-2.666.188-5.495-.16-7.872-1.438-3.124-1.68-5.33-4.524-6.289-7.936-.96-3.419-.3-7.367 1.484-10.412 2.135-3.645 5.721-5.569 9.692-6.571z" style="stroke-width:.5" transform="translate(-1.68 -1.37) scale(.0611)"/><path d="M230.536 211.02c7.995-.369 15.433 1.905 21.824 6.726 6.753 5.094 11.304 12.867 12.386 21.252 1.128 8.75-1.204 17.463-6.62 24.44-5.685 7.323-13.264 10.787-22.267 11.973-2.322.067-4.734.114-7.042-.177-8.873-1.12-16.3-5.821-21.757-12.81-4.88-6.253-7.54-14.565-6.51-22.519.87-6.723 3.107-12.434 7.46-17.703 5.816-7.041 13.595-10.331 22.526-11.182z" style="stroke-width:.5" transform="translate(-1.68 -1.37) scale(.0611)"/><path fill="#fff" d="M225.481 219.762c2.902-.173 5.874.476 8.32 2.085 2.686 1.768 4.852 4.78 5.484 7.957.705 3.542.086 7.156-1.953 10.164-2.197 3.242-5.574 4.765-9.291 5.485-3.523.013-6.697-.495-9.564-2.702-2.872-2.212-4.805-5.597-5.215-9.204-.342-3.014 1.032-6.661 2.922-9.005 2.417-2.998 5.522-4.366 9.297-4.78z" style="stroke-width:.5" transform="translate(-1.68 -1.37) scale(.0611)"/></svg>