<svg viewBox="0 0 640 480" xmlns="http://www.w3.org/2000/svg" version="1.1">

<g transform="matrix(0.41 0 0 0.41 178.25 331.25)"  >
<g style=""   >
		<g transform="matrix(1 0 0 1 -98.3 -220.16)" id="cpu"  >
<rect style="stroke: none; stroke-width: 1; stroke-dasharray: none; stroke-linecap: butt; stroke-dashoffset: 0; stroke-linejoin: miter; stroke-miterlimit: 4; fill: rgb(0,0,0); fill-rule: nonzero; opacity: 1;"  x="-16.3855" y="-35.8415" rx="0" ry="0" width="32.771" height="71.683" />
</g>
		<g transform="matrix(1 0 0 1 -32.77 -220.16)" id="cpu"  >
<rect style="stroke: none; stroke-width: 1; stroke-dasharray: none; stroke-linecap: butt; stroke-dashoffset: 0; stroke-linejoin: miter; stroke-miterlimit: 4; fill: rgb(0,0,0); fill-rule: nonzero; opacity: 1;"  x="-16.3805" y="-35.8415" rx="0" ry="0" width="32.761" height="71.683" />
</g>
		<g transform="matrix(1 0 0 1 32.77 -220.16)" id="cpu"  >
<rect style="stroke: none; stroke-width: 1; stroke-dasharray: none; stroke-linecap: butt; stroke-dashoffset: 0; stroke-linejoin: miter; stroke-miterlimit: 4; fill: rgb(0,0,0); fill-rule: nonzero; opacity: 1;"  x="-16.3805" y="-35.8415" rx="0" ry="0" width="32.761" height="71.683" />
</g>
		<g transform="matrix(1 0 0 1 98.3 -220.16)" id="cpu"  >
<rect style="stroke: none; stroke-width: 1; stroke-dasharray: none; stroke-linecap: butt; stroke-dashoffset: 0; stroke-linejoin: miter; stroke-miterlimit: 4; fill: rgb(0,0,0); fill-rule: nonzero; opacity: 1;"  x="-16.385" y="-35.8415" rx="0" ry="0" width="32.77" height="71.683" />
</g>
		<g transform="matrix(1 0 0 1 -98.3 220.16)" id="cpu"  >
<rect style="stroke: none; stroke-width: 1; stroke-dasharray: none; stroke-linecap: butt; stroke-dashoffset: 0; stroke-linejoin: miter; stroke-miterlimit: 4; fill: rgb(0,0,0); fill-rule: nonzero; opacity: 1;"  x="-16.3855" y="-35.837" rx="0" ry="0" width="32.771" height="71.674" />
</g>
		<g transform="matrix(1 0 0 1 -32.77 220.16)" id="cpu"  >
<rect style="stroke: none; stroke-width: 1; stroke-dasharray: none; stroke-linecap: butt; stroke-dashoffset: 0; stroke-linejoin: miter; stroke-miterlimit: 4; fill: rgb(0,0,0); fill-rule: nonzero; opacity: 1;"  x="-16.3805" y="-35.837" rx="0" ry="0" width="32.761" height="71.674" />
</g>
		<g transform="matrix(1 0 0 1 32.77 220.16)" id="cpu"  >
<rect style="stroke: none; stroke-width: 1; stroke-dasharray: none; stroke-linecap: butt; stroke-dashoffset: 0; stroke-linejoin: miter; stroke-miterlimit: 4; fill: rgb(0,0,0); fill-rule: nonzero; opacity: 1;"  x="-16.3805" y="-35.837" rx="0" ry="0" width="32.761" height="71.674" />
</g>
		<g transform="matrix(1 0 0 1 98.3 220.16)" id="cpu"  >
<rect style="stroke: none; stroke-width: 1; stroke-dasharray: none; stroke-linecap: butt; stroke-dashoffset: 0; stroke-linejoin: miter; stroke-miterlimit: 4; fill: rgb(0,0,0); fill-rule: nonzero; opacity: 1;"  x="-16.385" y="-35.837" rx="0" ry="0" width="32.77" height="71.674" />
</g>
		<g transform="matrix(1 0 0 1 220.16 -98.31)" id="cpu"  >
<rect style="stroke: none; stroke-width: 1; stroke-dasharray: none; stroke-linecap: butt; stroke-dashoffset: 0; stroke-linejoin: miter; stroke-miterlimit: 4; fill: rgb(0,0,0); fill-rule: nonzero; opacity: 1;"  x="-35.837" y="-16.3855" rx="0" ry="0" width="71.674" height="32.771" />
</g>
		<g transform="matrix(1 0 0 1 220.16 -32.77)" id="cpu"  >
<rect style="stroke: none; stroke-width: 1; stroke-dasharray: none; stroke-linecap: butt; stroke-dashoffset: 0; stroke-linejoin: miter; stroke-miterlimit: 4; fill: rgb(0,0,0); fill-rule: nonzero; opacity: 1;"  x="-35.837" y="-16.385" rx="0" ry="0" width="71.674" height="32.77" />
</g>
		<g transform="matrix(1 0 0 1 220.16 32.77)" id="cpu"  >
<rect style="stroke: none; stroke-width: 1; stroke-dasharray: none; stroke-linecap: butt; stroke-dashoffset: 0; stroke-linejoin: miter; stroke-miterlimit: 4; fill: rgb(0,0,0); fill-rule: nonzero; opacity: 1;"  x="-35.837" y="-16.3805" rx="0" ry="0" width="71.674" height="32.761" />
</g>
		<g transform="matrix(1 0 0 1 220.16 98.31)" id="cpu"  >
<rect style="stroke: none; stroke-width: 1; stroke-dasharray: none; stroke-linecap: butt; stroke-dashoffset: 0; stroke-linejoin: miter; stroke-miterlimit: 4; fill: rgb(0,0,0); fill-rule: nonzero; opacity: 1;"  x="-35.837" y="-16.385" rx="0" ry="0" width="71.674" height="32.77" />
</g>
		<g transform="matrix(1 0 0 1 -220.16 -98.31)" id="cpu"  >
<rect style="stroke: none; stroke-width: 1; stroke-dasharray: none; stroke-linecap: butt; stroke-dashoffset: 0; stroke-linejoin: miter; stroke-miterlimit: 4; fill: rgb(0,0,0); fill-rule: nonzero; opacity: 1;"  x="-35.837" y="-16.3855" rx="0" ry="0" width="71.674" height="32.771" />
</g>
		<g transform="matrix(1 0 0 1 -220.16 -32.77)" id="cpu"  >
<rect style="stroke: none; stroke-width: 1; stroke-dasharray: none; stroke-linecap: butt; stroke-dashoffset: 0; stroke-linejoin: miter; stroke-miterlimit: 4; fill: rgb(0,0,0); fill-rule: nonzero; opacity: 1;"  x="-35.837" y="-16.385" rx="0" ry="0" width="71.674" height="32.77" />
</g>
		<g transform="matrix(1 0 0 1 -220.16 32.77)" id="cpu"  >
<rect style="stroke: none; stroke-width: 1; stroke-dasharray: none; stroke-linecap: butt; stroke-dashoffset: 0; stroke-linejoin: miter; stroke-miterlimit: 4; fill: rgb(0,0,0); fill-rule: nonzero; opacity: 1;"  x="-35.837" y="-16.3805" rx="0" ry="0" width="71.674" height="32.761" />
</g>
		<g transform="matrix(1 0 0 1 -220.16 98.31)" id="cpu"  >
<rect style="stroke: none; stroke-width: 1; stroke-dasharray: none; stroke-linecap: butt; stroke-dashoffset: 0; stroke-linejoin: miter; stroke-miterlimit: 4; fill: rgb(0,0,0); fill-rule: nonzero; opacity: 1;"  x="-35.837" y="-16.385" rx="0" ry="0" width="71.674" height="32.77" />
</g>
		<g transform="matrix(1 0 0 1 -1.7 -12.91)" id="cpu"  >
<path style="stroke: none; stroke-width: 1; stroke-dasharray: none; stroke-linecap: butt; stroke-dashoffset: 0; stroke-linejoin: miter; stroke-miterlimit: 4; fill: rgb(0,0,0); fill-rule: nonzero; opacity: 1;"  transform=" translate(-254.3, -243.09)" d="M 255.246 252.209 c 6.171 0 9.862 -3.586 9.862 -9.06 c 0 -5.485 -3.69 -9.176 -9.862 -9.176 h -11.16 c -0.4 0 -0.6 0.21 -0.6 0.61 v 17.025 c 0 0.4 0.2 0.601 0.6 0.601 H 255.246 z" stroke-linecap="round" />
</g>
		<g transform="matrix(1 0 0 1 0 0)" id="cpu"  >
<path style="stroke: none; stroke-width: 1; stroke-dasharray: none; stroke-linecap: butt; stroke-dashoffset: 0; stroke-linejoin: miter; stroke-miterlimit: 4; fill: rgb(0,0,0); fill-rule: nonzero; opacity: 1;"  transform=" translate(-256, -256)" d="M 92.165 419.84 h 327.67 V 92.17 H 92.165 V 419.84 z M 367.359 130.568 c 8.479 0 15.356 6.867 15.356 15.356 c 0 8.488 -6.876 15.355 -15.356 15.355 c -8.479 0 -15.356 -6.867 -15.356 -15.355 C 352.004 137.434 358.88 130.568 367.359 130.568 z M 367.359 353.287 c 8.479 0 15.356 6.867 15.356 15.356 c 0 8.488 -6.876 15.355 -15.356 15.355 c -8.479 0 -15.356 -6.867 -15.356 -15.355 C 352.004 360.154 358.88 353.287 367.359 353.287 z M 290.821 222.318 c 0 -0.591 0.4 -0.991 1.001 -0.991 h 12.648 c 0.6 0 1.001 0.4 1.001 0.991 v 42.242 c 0 8.069 4.483 12.648 11.35 12.648 c 6.772 0 11.264 -4.578 11.264 -12.648 v -42.242 c 0 -0.591 0.4 -0.991 0.992 -0.991 h 12.646 c 0.601 0 0.992 0.4 0.992 0.991 v 41.851 c 0 16.825 -10.749 25.99 -25.895 25.99 c -15.232 0 -25.999 -9.165 -25.999 -25.99 V 222.318 z M 228.846 222.318 c 0 -0.591 0.4 -0.991 1.001 -0.991 h 26.295 c 14.745 0 23.605 8.87 23.605 21.822 c 0 12.741 -8.966 21.707 -23.605 21.707 h -12.056 c -0.4 0 -0.6 0.2 -0.6 0.6 v 22.614 c 0 0.591 -0.391 0.991 -0.991 0.991 h -12.648 c -0.601 0 -1.001 -0.4 -1.001 -0.991 V 222.318 z M 167.673 236.872 c 3.586 -11.063 12.256 -16.633 24.112 -16.633 c 11.454 0 19.819 5.57 23.605 15.03 c 0.295 0.496 0.095 0.992 -0.496 1.202 l -10.863 4.874 c -0.592 0.296 -1.097 0.104 -1.393 -0.486 c -1.889 -4.387 -5.084 -7.678 -10.759 -7.678 c -5.274 0 -8.66 2.795 -10.157 7.468 c -0.801 2.499 -1.097 4.883 -1.097 14.554 c 0 9.652 0.296 12.046 1.097 14.535 c 1.497 4.673 4.883 7.468 10.157 7.468 c 5.675 0 8.87 -3.291 10.759 -7.669 c 0.296 -0.6 0.801 -0.791 1.393 -0.496 l 10.863 4.874 c 0.591 0.21 0.791 0.706 0.496 1.202 c -3.786 9.461 -12.152 15.04 -23.605 15.04 c -11.856 0 -20.525 -5.58 -24.112 -16.643 c -1.487 -4.368 -1.888 -7.859 -1.888 -18.312 C 165.785 244.732 166.186 241.26 167.673 236.872 z M 144.64 130.568 c 8.489 0 15.365 6.876 15.365 15.356 c 0 8.478 -6.876 15.355 -15.365 15.355 c -8.488 0 -15.355 -6.876 -15.355 -15.355 C 129.285 137.444 136.152 130.568 144.64 130.568 z M 144.64 353.287 c 8.489 0 15.365 6.876 15.365 15.356 c 0 8.478 -6.876 15.355 -15.365 15.355 c -8.488 0 -15.355 -6.877 -15.355 -15.355 C 129.285 360.163 136.152 353.287 144.64 353.287 z" stroke-linecap="round" />
</g>
</g>
</g>
<g transform="matrix(0.48 0 0 0.48 429.95 327.95)"  >
<g style=""   >
		<g transform="matrix(1 0 0 1 26.67 -70.4)" id="chemistry"  >
<path style="stroke: none; stroke-width: 1; stroke-dasharray: none; stroke-linecap: butt; stroke-dashoffset: 0; stroke-linejoin: miter; stroke-miterlimit: 4; fill: rgb(224,224,223); fill-rule: nonzero; opacity: 1;"  transform=" translate(-277.87, -180.8)" d="M 413.867 302.4 L 316.8 171.2 V 66.667 c 0 -5.333 4.267 -9.6 9.6 -9.6 l 0 0 c 5.333 0 9.6 -4.267 9.6 -9.6 v -16 c 0 -5.333 -4.267 -9.6 -9.6 -9.6 h -97.067 c -5.333 0 -9.6 4.267 -9.6 9.6 v 16 c 0 5.333 4.267 9.6 9.6 9.6 l 0 0 c 5.333 0 9.6 4.267 9.6 9.6 v 105.6 l -97.067 131.2 c -14.933 20.267 -3.2 36.267 25.6 36.267 h 220.8 C 417.067 339.733 428.8 322.667 413.867 302.4 z" stroke-linecap="round" />
</g>
		<g transform="matrix(1 0 0 1 26.47 24)" id="chemistry"  >
<path style="stroke: none; stroke-width: 1; stroke-dasharray: none; stroke-linecap: butt; stroke-dashoffset: 0; stroke-linejoin: miter; stroke-miterlimit: 4; fill: rgb(96,195,171); fill-rule: nonzero; opacity: 1;"  transform=" translate(-277.67, -275.2)" d="M 340.267 226.667 h -124.8 L 153.6 310.933 c -3.2 4.267 -4.267 7.467 -3.2 8.533 c 1.067 1.067 6.4 4.267 17.067 4.267 h 220.8 c 11.733 0 17.067 -3.2 17.067 -4.267 c 0 -1.067 0 -4.267 -3.2 -8.533 L 340.267 226.667 z" stroke-linecap="round" />
</g>
		<g transform="matrix(1 0 0 1 -179.73 -28.8)" id="chemistry"  >
<path style="stroke: none; stroke-width: 1; stroke-dasharray: none; stroke-linecap: butt; stroke-dashoffset: 0; stroke-linejoin: miter; stroke-miterlimit: 4; fill: rgb(58,85,105); fill-rule: nonzero; opacity: 1;"  transform=" translate(-71.47, -222.4)" d="M 71.467 0.533 c -8.533 0 -16 7.467 -16 16 v 427.733 h 32 V 16.533 C 87.467 8 80 0.533 71.467 0.533 z" stroke-linecap="round" />
</g>
		<g transform="matrix(1 0 0 1 0 221.87)" id="chemistry"  >
<path style="stroke: none; stroke-width: 1; stroke-dasharray: none; stroke-linecap: butt; stroke-dashoffset: 0; stroke-linejoin: miter; stroke-miterlimit: 4; fill: rgb(99,120,136); fill-rule: nonzero; opacity: 1;"  transform=" translate(-251.2, -473.07)" d="M 472.533 444.267 H 28.8 c -16 0 -28.8 12.8 -28.8 28.8 s 12.8 28.8 28.8 28.8 h 444.8 c 16 0 28.8 -12.8 28.8 -28.8 C 501.333 457.067 488.533 444.267 472.533 444.267 z" stroke-linecap="round" />
</g>
		<g transform="matrix(1 0 0 1 -51.73 -123.73)" id="chemistry"  >
<rect style="stroke: none; stroke-width: 1; stroke-dasharray: none; stroke-linecap: butt; stroke-dashoffset: 0; stroke-linejoin: miter; stroke-miterlimit: 4; fill: rgb(254,198,86); fill-rule: nonzero; opacity: 1;"  x="-174.9335" y="-12.8" rx="0" ry="0" width="349.867" height="25.6" />
</g>
		<g transform="matrix(1 0 0 1 -232.53 -123.73)" id="chemistry"  >
<rect style="stroke: none; stroke-width: 1; stroke-dasharray: none; stroke-linecap: butt; stroke-dashoffset: 0; stroke-linejoin: miter; stroke-miterlimit: 4; fill: rgb(239,159,44); fill-rule: nonzero; opacity: 1;"  x="-5.8665" y="-28.8" rx="0" ry="0" width="11.733" height="57.6" />
</g>
		<g transform="matrix(1 0 0 1 -30.4 35.2)" id="chemistry"  >
<ellipse style="stroke: none; stroke-width: 1; stroke-dasharray: none; stroke-linecap: butt; stroke-dashoffset: 0; stroke-linejoin: miter; stroke-miterlimit: 4; fill: rgb(255,255,255); fill-rule: nonzero; opacity: 1;"  cx="0" cy="0" rx="11.733" ry="11.733" />
</g>
		<g transform="matrix(1 0 0 1 47.47 -4.27)" id="chemistry"  >
<circle style="stroke: none; stroke-width: 1; stroke-dasharray: none; stroke-linecap: butt; stroke-dashoffset: 0; stroke-linejoin: miter; stroke-miterlimit: 4; fill: rgb(255,255,255); fill-rule: nonzero; opacity: 1;"  cx="0" cy="0" r="6.4" />
</g>
		<g transform="matrix(1 0 0 1 100.8 48)" id="chemistry"  >
<circle style="stroke: none; stroke-width: 1; stroke-dasharray: none; stroke-linecap: butt; stroke-dashoffset: 0; stroke-linejoin: miter; stroke-miterlimit: 4; fill: rgb(255,255,255); fill-rule: nonzero; opacity: 1;"  cx="0" cy="0" r="6.4" />
</g>
		<g transform="matrix(1 0 0 1 20.8 -67.2)" id="chemistry"  >
<ellipse style="stroke: none; stroke-width: 1; stroke-dasharray: none; stroke-linecap: butt; stroke-dashoffset: 0; stroke-linejoin: miter; stroke-miterlimit: 4; fill: rgb(255,255,255); fill-rule: nonzero; opacity: 1;"  cx="0" cy="0" rx="9.6" ry="9.6" />
</g>
		<g transform="matrix(1 0 0 1 42.13 -152.53)" id="chemistry"  >
<circle style="stroke: none; stroke-width: 1; stroke-dasharray: none; stroke-linecap: butt; stroke-dashoffset: 0; stroke-linejoin: miter; stroke-miterlimit: 4; fill: rgb(255,255,255); fill-rule: nonzero; opacity: 1;"  cx="0" cy="0" r="6.4" />
</g>
		<g transform="matrix(1 0 0 1 15.47 -201.6)" id="chemistry"  >
<circle style="stroke: none; stroke-width: 1; stroke-dasharray: none; stroke-linecap: butt; stroke-dashoffset: 0; stroke-linejoin: miter; stroke-miterlimit: 4; fill: rgb(255,255,255); fill-rule: nonzero; opacity: 1;"  cx="0" cy="0" r="6.4" />
</g>
		<g transform="matrix(1 0 0 1 18.13 105.99)" id="chemistry"  >
<path style="stroke: none; stroke-width: 1; stroke-dasharray: none; stroke-linecap: butt; stroke-dashoffset: 0; stroke-linejoin: miter; stroke-miterlimit: 4; fill: rgb(225,74,74); fill-rule: nonzero; opacity: 1;"  transform=" translate(-269.33, -357.19)" d="M 267.733 355.733 c 1.067 1.067 2.133 2.133 3.2 3.2 C 270.933 356.8 269.867 354.667 267.733 355.733 z" stroke-linecap="round" />
</g>
		<g transform="matrix(1 0 0 1 27.18 139.73)" id="chemistry"  >
<path style="stroke: none; stroke-width: 1; stroke-dasharray: none; stroke-linecap: butt; stroke-dashoffset: 0; stroke-linejoin: miter; stroke-miterlimit: 4; fill: rgb(225,74,74); fill-rule: nonzero; opacity: 1;"  transform=" translate(-278.38, -390.93)" d="M 174.933 431.467 h 220.8 c 0 -23.467 -6.4 -45.867 -18.133 -65.067 c 2.133 6.4 1.067 13.867 -3.2 19.2 c -2.133 3.2 -6.4 6.4 -8.533 8.533 c -2.133 2.133 -3.2 4.267 -4.267 7.467 c 0 -18.133 -6.4 -36.267 -17.067 -51.2 c 2.133 6.4 -1.067 14.933 -6.4 19.2 c -5.333 5.333 -11.733 8.533 -18.133 10.667 c -5.333 2.133 -10.667 3.2 -13.867 7.467 c -4.267 5.333 -3.2 12.8 -2.133 19.2 c -7.467 -7.467 -12.8 -18.133 -12.8 -28.8 c -4.267 6.4 -7.467 12.8 -7.467 20.267 c 1.067 -14.933 -3.2 -29.867 -12.8 -41.6 l 0 0 c 0 13.867 -20.267 22.4 -20.267 36.267 c 0 6.4 3.2 11.733 6.4 16 c -6.4 -3.2 -12.8 -6.4 -14.933 -13.867 c -1.067 -2.133 -1.067 -5.333 -1.067 -8.533 c -1.067 -12.8 -4.267 -24.533 -10.667 -35.2 c 0 8.533 -8.533 13.867 -16 18.133 c -5.333 3.2 -10.667 7.467 -14.933 11.733 c -2.133 3.2 -4.267 6.4 -5.333 9.6 c -1.067 -5.333 -3.2 -9.6 -6.4 -12.8 C 182.4 371.733 176 367.467 172.8 360 c 1.067 6.4 1.067 13.867 -2.133 19.2 c -1.067 2.133 -3.2 3.2 -5.333 5.333 c -5.333 6.4 -5.333 16 -2.133 24.533 C 165.333 419.733 169.6 425.067 174.933 431.467 z" stroke-linecap="round" />
</g>
		<g transform="matrix(1 0 0 1 26.19 187.2)" id="chemistry"  >
<path style="stroke: none; stroke-width: 1; stroke-dasharray: none; stroke-linecap: butt; stroke-dashoffset: 0; stroke-linejoin: miter; stroke-miterlimit: 4; fill: rgb(58,85,105); fill-rule: nonzero; opacity: 1;"  transform=" translate(-277.39, -438.4)" d="M 389.333 431.467 H 166.4 c -7.467 0 -13.867 6.4 -13.867 13.867 h 249.6 C 403.2 437.867 396.8 431.467 389.333 431.467 z" stroke-linecap="round" />
</g>
		<g transform="matrix(1 0 0 1 -179.73 -123.73)" id="chemistry"  >
<circle style="stroke: none; stroke-width: 1; stroke-dasharray: none; stroke-linecap: butt; stroke-dashoffset: 0; stroke-linejoin: miter; stroke-miterlimit: 4; fill: rgb(239,159,44); fill-rule: nonzero; opacity: 1;"  cx="0" cy="0" r="27.733" />
</g>
		<g transform="matrix(1 0 0 1 29.26 161.07)" id="chemistry"  >
<path style="stroke: none; stroke-width: 1; stroke-dasharray: none; stroke-linecap: butt; stroke-dashoffset: 0; stroke-linejoin: miter; stroke-miterlimit: 4; fill: rgb(254,198,86); fill-rule: nonzero; opacity: 1;"  transform=" translate(-280.46, -412.27)" d="M 384 431.467 c 0 -1.067 0 -2.133 0 -4.267 c 0 -2.133 0 -4.267 -1.067 -6.4 c -1.067 -2.133 -4.267 -2.133 -5.333 -1.067 c -1.067 -3.2 -3.2 -6.4 -4.267 -9.6 c -4.267 2.133 -6.4 6.4 -8.533 10.667 c -1.067 -2.133 -2.133 -5.333 -3.2 -7.467 c -3.2 3.2 -7.467 6.4 -10.667 8.533 c 5.333 -9.6 3.2 -22.4 -5.333 -28.8 c 0 3.2 0 6.4 0 8.533 c -1.067 3.2 -3.2 5.333 -5.333 6.4 s -4.267 0 -6.4 0 c -3.2 0 -6.4 3.2 -9.6 5.333 c -4.267 3.2 -9.6 7.467 -10.667 13.867 c -5.333 0 -10.667 -2.133 -13.867 -6.4 c -1.067 -1.067 -2.133 -2.133 -3.2 -3.2 c -1.067 -1.067 -3.2 -1.067 -4.267 0 c -1.067 1.067 -1.067 2.133 -2.133 2.133 c -1.067 1.067 -3.2 1.067 -4.267 0 c -1.067 -1.067 -2.133 -3.2 -2.133 -4.267 c -1.067 0 -2.133 1.067 -3.2 2.133 c -2.133 -3.2 -4.267 -6.4 -5.333 -10.667 c -5.333 6.4 -10.667 13.867 -9.6 22.4 c -6.4 -3.2 -13.867 -5.333 -20.267 -8.533 c -4.267 -1.067 -7.467 -3.2 -10.667 -6.4 c -5.333 -5.333 -6.4 -12.8 -6.4 -20.267 c -9.6 7.467 -14.933 17.067 -13.867 27.733 c -1.067 -2.133 -3.2 -3.2 -5.333 -4.267 c -2.133 -1.067 -5.333 1.067 -5.333 3.2 c -4.267 -2.133 -8.533 -5.333 -11.733 -8.533 c -1.067 3.2 -1.067 6.4 0 9.6 c -6.4 -4.267 -12.8 -9.6 -12.8 -16 c -3.2 8.533 -3.2 18.133 1.067 25.6 H 384 z" stroke-linecap="round" />
</g>
</g>
</g>
<g transform="matrix(0.28 0 0 0.28 306.25 135.75)"  >
<g style=""   >
		<g transform="matrix(22.22 0 0 22.22 -305.03 231.62)" id="dna"  >
<path style="stroke: none; stroke-width: 1; stroke-dasharray: none; stroke-linecap: butt; stroke-dashoffset: 0; stroke-linejoin: miter; stroke-miterlimit: 4; fill: rgb(119,178,85); fill-rule: nonzero; opacity: 1;"  transform=" translate(-4.27, -28.42)" d="M 3.019 26.246 l 3.432 3.432 l -0.923 0.922 l -3.432 -3.431 z" stroke-linecap="round" />
</g>
		<g transform="matrix(22.22 0 0 22.22 -230.74 305.88)" id="dna"  >
<path style="stroke: none; stroke-width: 1; stroke-dasharray: none; stroke-linecap: butt; stroke-dashoffset: 0; stroke-linejoin: miter; stroke-miterlimit: 4; fill: rgb(255,217,131); fill-rule: nonzero; opacity: 1;"  transform=" translate(-7.62, -31.76)" d="M 6.362 29.587 l 3.431 3.432 l -0.923 0.923 l -3.43 -3.432 z" stroke-linecap="round" />
</g>
		<g transform="matrix(22.22 0 0 22.22 -232.72 186.99)" id="dna"  >
<path style="stroke: none; stroke-width: 1; stroke-dasharray: none; stroke-linecap: butt; stroke-dashoffset: 0; stroke-linejoin: miter; stroke-miterlimit: 4; fill: rgb(255,172,51); fill-rule: nonzero; opacity: 1;"  transform=" translate(-7.53, -26.41)" d="M 6.273 24.237 l 3.432 3.432 l -0.923 0.923 L 5.35 25.16 z" stroke-linecap="round" />
</g>
		<g transform="matrix(22.22 0 0 22.22 -128.73 143.56)" id="dna"  >
<path style="stroke: none; stroke-width: 1; stroke-dasharray: none; stroke-linecap: butt; stroke-dashoffset: 0; stroke-linejoin: miter; stroke-miterlimit: 4; fill: rgb(234,89,110); fill-rule: nonzero; opacity: 1;"  transform=" translate(-12.21, -24.46)" d="M 8.998 26.962 l 3.432 3.432 l -0.923 0.923 l -3.431 -3.432 z m 3.909 -9.359 l 3.431 3.432 l -0.923 0.923 l -3.431 -3.432 z" stroke-linecap="round" />
</g>
		<g transform="matrix(22.22 0 0 22.22 -24.77 100.13)" id="dna"  >
<path style="stroke: none; stroke-width: 1; stroke-dasharray: none; stroke-linecap: butt; stroke-dashoffset: 0; stroke-linejoin: miter; stroke-miterlimit: 4; fill: rgb(255,172,51); fill-rule: nonzero; opacity: 1;"  transform=" translate(-16.89, -22.51)" d="M 15.631 20.329 l 3.432 3.431 l -0.923 0.923 l -3.432 -3.431 z" stroke-linecap="round" />
</g>
		<g transform="matrix(22.22 0 0 22.22 -39.44 -32.12)" id="dna"  >
<path style="stroke: none; stroke-width: 1; stroke-dasharray: none; stroke-linecap: butt; stroke-dashoffset: 0; stroke-linejoin: miter; stroke-miterlimit: 4; fill: rgb(119,178,85); fill-rule: nonzero; opacity: 1;"  transform=" translate(-16.23, -16.55)" d="M 14.97 14.377 l 3.432 3.432 l -0.922 0.923 l -3.432 -3.432 z" stroke-linecap="round" />
</g>
		<g transform="matrix(22.22 0 0 22.22 34.03 41.34)" id="dna"  >
<path style="stroke: none; stroke-width: 1; stroke-dasharray: none; stroke-linecap: butt; stroke-dashoffset: 0; stroke-linejoin: miter; stroke-miterlimit: 4; fill: rgb(255,217,131); fill-rule: nonzero; opacity: 1;"  transform=" translate(-19.53, -19.86)" d="M 18.277 17.683 l 3.432 3.432 l -0.923 0.923 l -3.432 -3.432 z" stroke-linecap="round" />
</g>
		<g transform="matrix(22.22 0 0 22.22 19.34 -90.93)" id="dna"  >
<path style="stroke: none; stroke-width: 1; stroke-dasharray: none; stroke-linecap: butt; stroke-dashoffset: 0; stroke-linejoin: miter; stroke-miterlimit: 4; fill: rgb(255,172,51); fill-rule: nonzero; opacity: 1;"  transform=" translate(-18.87, -13.91)" d="M 17.616 11.731 l 3.432 3.432 l -0.923 0.922 l -3.432 -3.431 z" stroke-linecap="round" />
</g>
		<g transform="matrix(22.22 0 0 22.22 131.33 -129.42)" id="dna"  >
<path style="stroke: none; stroke-width: 1; stroke-dasharray: none; stroke-linecap: butt; stroke-dashoffset: 0; stroke-linejoin: miter; stroke-miterlimit: 4; fill: rgb(234,89,110); fill-rule: nonzero; opacity: 1;"  transform=" translate(-23.91, -12.18)" d="M 20.923 15.038 l 3.432 3.431 l -0.923 0.923 l -3.431 -3.432 z M 24.387 4.96 l 3.432 3.432 l -0.923 0.922 l -3.432 -3.431 z" stroke-linecap="round" />
</g>
		<g transform="matrix(22.22 0 0 22.22 243.3 -167.91)" id="dna"  >
<path style="stroke: none; stroke-width: 1; stroke-dasharray: none; stroke-linecap: butt; stroke-dashoffset: 0; stroke-linejoin: miter; stroke-miterlimit: 4; fill: rgb(255,172,51); fill-rule: nonzero; opacity: 1;"  transform=" translate(-28.95, -10.44)" d="M 27.694 8.267 l 3.432 3.431 l -0.923 0.923 l -3.432 -3.432 z" stroke-linecap="round" />
</g>
		<g transform="matrix(22.22 0 0 22.22 228.17 -301.57)" id="dna"  >
<path style="stroke: none; stroke-width: 1; stroke-dasharray: none; stroke-linecap: butt; stroke-dashoffset: 0; stroke-linejoin: miter; stroke-miterlimit: 4; fill: rgb(119,178,85); fill-rule: nonzero; opacity: 1;"  transform=" translate(-28.27, -4.43)" d="M 27.013 2.252 l 3.432 3.432 l -0.923 0.923 l -3.432 -3.432 z" stroke-linecap="round" />
</g>
		<g transform="matrix(22.22 0 0 22.22 302.54 -227.18)" id="dna"  >
<path style="stroke: none; stroke-width: 1; stroke-dasharray: none; stroke-linecap: butt; stroke-dashoffset: 0; stroke-linejoin: miter; stroke-miterlimit: 4; fill: rgb(255,217,131); fill-rule: nonzero; opacity: 1;"  transform=" translate(-31.61, -7.78)" d="M 30.36 5.6 l 3.432 3.431 l -0.923 0.923 l -3.432 -3.431 z" stroke-linecap="round" />
</g>
		<g transform="matrix(22.22 0 0 22.22 155.2 -278.42)" id="dna"  >
<path style="stroke: none; stroke-width: 1; stroke-dasharray: none; stroke-linecap: butt; stroke-dashoffset: 0; stroke-linejoin: miter; stroke-miterlimit: 4; fill: rgb(146,102,204); fill-rule: nonzero; opacity: 1;"  transform=" translate(-24.98, -5.47)" d="M 24.922 0.812 c -2.52 2.52 -2.601 6.145 -2.396 9.806 c 0.501 0.028 1.002 0.061 1.502 0.094 c 0.39 0.026 0.775 0.051 1.159 0.074 c -0.198 -3.286 -0.199 -6.299 1.606 -8.104 c 0.727 -0.703 0.955 -1.653 0.447 -2.166 c -0.535 -0.54 -1.542 -0.497 -2.318 0.296 z" stroke-linecap="round" />
</g>
		<g transform="matrix(22.22 0 0 22.22 -139.06 153.62)" id="dna"  >
<path style="stroke: none; stroke-width: 1; stroke-dasharray: none; stroke-linecap: butt; stroke-dashoffset: 0; stroke-linejoin: miter; stroke-miterlimit: 4; fill: rgb(59,136,195); fill-rule: nonzero; opacity: 1;"  transform=" translate(-11.74, -24.91)" d="M 13.146 25.65 l -0.153 -2.66 c -0.026 -0.445 -0.058 -0.899 -0.074 -1.332 c -0.296 -0.296 -2.466 -0.349 -2.653 -0.162 c 0.013 0.44 0.047 0.884 0.071 1.327 c 0.028 0.502 0.126 2.275 0.149 2.66 c 0.054 0.91 0.096 1.806 0.086 2.656 c 0.259 0.259 2.371 0.437 2.645 0.162 a 36.931 36.931 0 0 0 -0.071 -2.651 z" stroke-linecap="round" />
</g>
		<g transform="matrix(22.22 0 0 22.22 -158.71 310.91)" id="dna"  >
<path style="stroke: none; stroke-width: 1; stroke-dasharray: none; stroke-linecap: butt; stroke-dashoffset: 0; stroke-linejoin: miter; stroke-miterlimit: 4; fill: rgb(85,172,238); fill-rule: nonzero; opacity: 1;"  transform=" translate(-10.86, -31.99)" d="M 13.22 28.3 l -2.649 -0.162 c -0.026 2.209 -0.384 4.145 -1.687 5.448 a 1.322 1.322 0 1 0 1.87 1.871 c 2.423 -2.422 2.467 -7.174 2.466 -7.157 z" stroke-linecap="round" />
</g>
		<g transform="matrix(22.22 0 0 22.22 -116.06 52.84)" id="dna"  >
<path style="stroke: none; stroke-width: 1; stroke-dasharray: none; stroke-linecap: butt; stroke-dashoffset: 0; stroke-linejoin: miter; stroke-miterlimit: 4; fill: rgb(146,102,204); fill-rule: nonzero; opacity: 1;"  transform=" translate(-12.78, -20.38)" d="M 25.354 13.447 c -0.501 -0.028 -1.003 -0.061 -1.503 -0.094 c -0.389 -0.026 -0.775 -0.051 -1.158 -0.074 c 0.198 3.285 0.199 6.299 -1.607 8.104 c -1.804 1.804 -4.813 1.805 -8.094 1.607 c -0.386 -0.023 -2.159 -0.14 -2.656 -0.168 c -3.667 -0.206 -7.297 -0.126 -9.82 2.397 a 1.322 1.322 0 0 0 1.871 1.87 c 1.805 -1.804 4.815 -1.806 8.098 -1.608 c 0.385 0.023 2.161 0.14 2.66 0.168 c 3.662 0.205 7.289 0.125 9.811 -2.396 c 2.521 -2.52 2.603 -6.145 2.398 -9.806 z" stroke-linecap="round" />
</g>
		<g transform="matrix(22.22 0 0 22.22 132.12 -117.9)" id="dna"  >
<path style="stroke: none; stroke-width: 1; stroke-dasharray: none; stroke-linecap: butt; stroke-dashoffset: 0; stroke-linejoin: miter; stroke-miterlimit: 4; fill: rgb(116,78,170); fill-rule: nonzero; opacity: 1;"  transform=" translate(-23.95, -12.69)" d="M 25.354 13.447 c -0.028 -0.501 -0.145 -2.277 -0.168 -2.66 a 51.95 51.95 0 0 1 -0.064 -1.332 c -0.336 -0.021 -2.1 -0.133 -2.653 -0.163 c 0.013 0.44 0.032 0.883 0.056 1.326 c 0.028 0.501 0.145 2.277 0.168 2.661 c 0.055 0.914 0.091 1.804 0.081 2.656 c 0.333 0.021 2.094 0.132 2.645 0.162 a 36.316 36.316 0 0 0 -0.065 -2.65 z" stroke-linecap="round" />
</g>
		<g transform="matrix(22.22 0 0 22.22 112.48 -65.15)" id="dna"  >
<path style="stroke: none; stroke-width: 1; stroke-dasharray: none; stroke-linecap: butt; stroke-dashoffset: 0; stroke-linejoin: miter; stroke-miterlimit: 4; fill: rgb(85,172,238); fill-rule: nonzero; opacity: 1;"  transform=" translate(-23.06, -15.07)" d="M 35.581 8.827 c -0.42 -0.436 -1.385 -0.601 -2.291 0.353 c -1.805 1.805 -4.817 1.806 -8.104 1.607 c -0.384 -0.023 -2.16 -0.141 -2.661 -0.169 c -3.66 -0.205 -7.286 -0.123 -9.806 2.397 c -2.215 2.215 -2.545 5.284 -2.453 8.48 c 0.553 0.03 2.319 0.142 2.653 0.162 c -0.098 -2.755 0.113 -5.214 1.671 -6.772 c 1.805 -1.805 4.818 -1.805 8.104 -1.607 c 0.383 0.023 2.16 0.14 2.661 0.168 c 3.661 0.205 7.286 0.124 9.806 -2.396 c 0.886 -0.869 0.84 -1.787 0.42 -2.223 z" stroke-linecap="round" />
</g>
</g>
</g>

</svg>