<?xml version="1.0" encoding="UTF-8" standalone="no" ?>

<svg viewBox="0 0 640 480" xmlns="http://www.w3.org/2000/svg" version="1.1">

<g transform="matrix(0.3 0 0 0.3 327.5 175.5)"  >
<g style=""   >
		<g transform="matrix(0.78 0 0 0.78 -192.66 267.46)"  >
<path style="stroke: none; stroke-width: 1; stroke-dasharray: none; stroke-linecap: butt; stroke-dashoffset: 0; stroke-linejoin: miter; stroke-miterlimit: 4; fill: rgb(216,161,40); fill-rule: nonzero; opacity: 1;"  transform=" translate(-265.45, -854.48)" d="M 292.7 881 V 778.7 h -54.5 V 881 l 22.2 46.1 c 2 4.2 8 4.2 10 0 l 22.3 -46.1 z" stroke-linecap="round" />
</g>
		<g transform="matrix(0.78 0 0 0.78 -192.66 267.44)"  >
<path style="stroke: none; stroke-width: 1; stroke-dasharray: none; stroke-linecap: butt; stroke-dashoffset: 0; stroke-linejoin: miter; stroke-miterlimit: 4; fill: rgb(51,51,54); fill-rule: nonzero; opacity: 1;"  transform=" translate(-265.45, -854.45)" d="M 265.5 935.7 c -4.3 0 -8.1 -2.4 -10 -6.3 l -22.8 -47.2 v -109 h 65.5 v 109.1 l -22.8 47.2 c -1.8 3.8 -5.6 6.2 -9.9 6.2 z m -21.7 -55.9 l 21.7 44.9 h 0.1 l 21.7 -45 v -95.6 h -43.5 v 95.7 z" stroke-linecap="round" />
</g>
		<g transform="matrix(0.78 0 0 0.78 -192.65 178.46)"  >
<path style="stroke: none; stroke-width: 1; stroke-dasharray: none; stroke-linecap: butt; stroke-dashoffset: 0; stroke-linejoin: miter; stroke-miterlimit: 4; fill: rgb(213,217,207); fill-rule: nonzero; opacity: 1;"  transform=" translate(-265.45, -740.65)" d="M 292.7 874.6 h -54.5 V 626.3 c 0 -10.8 8.8 -19.6 19.6 -19.6 h 15.3 c 10.8 0 19.6 8.8 19.6 19.6 v 248.3 z" stroke-linecap="round" />
</g>
		<g transform="matrix(0.78 0 0 0.78 -192.65 178.46)"  >
<path style="stroke: none; stroke-width: 1; stroke-dasharray: none; stroke-linecap: butt; stroke-dashoffset: 0; stroke-linejoin: miter; stroke-miterlimit: 4; fill: rgb(51,51,54); fill-rule: nonzero; opacity: 1;"  transform=" translate(-265.45, -740.65)" d="M 298.2 880.1 h -65.5 V 626.3 c 0 -13.8 11.3 -25.1 25.1 -25.1 h 15.3 c 13.8 0 25.1 11.3 25.1 25.1 v 253.8 z m -54.4 -11 h 43.5 V 626.3 c 0 -7.8 -6.3 -14.1 -14.1 -14.1 h -15.3 c -7.8 0 -14.1 6.3 -14.1 14.1 v 242.8 z" stroke-linecap="round" />
</g>
		<g transform="matrix(0.78 0 0 0.78 -192.65 90.87)"  >
<path style="stroke: none; stroke-width: 1; stroke-dasharray: none; stroke-linecap: butt; stroke-dashoffset: 0; stroke-linejoin: miter; stroke-miterlimit: 4; fill: rgb(216,161,40); fill-rule: nonzero; opacity: 1;"  transform=" translate(-265.45, -628.35)" d="M 292.7 650 h -54.5 v -23.7 c 0 -10.8 8.8 -19.6 19.6 -19.6 h 15.3 c 10.8 0 19.6 8.8 19.6 19.6 V 650 z" stroke-linecap="round" />
</g>
		<g transform="matrix(0.78 0 0 0.78 -123.78 199.76)"  >
<path style="stroke: none; stroke-width: 1; stroke-dasharray: none; stroke-linecap: butt; stroke-dashoffset: 0; stroke-linejoin: miter; stroke-miterlimit: 4; fill: rgb(51,51,54); fill-rule: nonzero; opacity: 1;"  transform=" translate(-353.75, -767.95)" d="M 298.2 655.5 h -65.5 v -29.2 c 0 -13.8 11.3 -25.1 25.1 -25.1 h 15.3 c 13.8 0 25.1 11.3 25.1 25.1 v 29.2 z m -54.4 -11 h 43.5 v -18.2 c 0 -7.8 -6.3 -14.1 -14.1 -14.1 h -15.3 c -7.8 0 -14.1 6.3 -14.1 14.1 v 18.2 z M 277.1 913.5 H 254 l 6.6 13.6 c 2 4.2 8 4.2 10 0 l 6.5 -13.6 z M 469.3 934.7 c -3 0 -5.5 -2.5 -5.5 -5.5 V 856 c 0 -3 2.5 -5.5 5.5 -5.5 s 5.5 2.5 5.5 5.5 v 73.2 c 0 3 -2.5 5.5 -5.5 5.5 z" stroke-linecap="round" />
</g>
		<g transform="matrix(0.78 0 0 0.78 -77.86 -256.68)"  >
<path style="stroke: none; stroke-width: 1; stroke-dasharray: none; stroke-linecap: butt; stroke-dashoffset: 0; stroke-linejoin: miter; stroke-miterlimit: 4; fill: rgb(255,214,50); fill-rule: nonzero; opacity: 1;"  transform=" translate(-412.4, -183.6)" d="M 454.6 136 c 0 -23.3 -18.9 -42.2 -42.2 -42.2 s -42.2 18.9 -42.2 42.2 c 0 14.3 7.1 26.8 17.9 34.5 v 102.9 h 46.8 V 171.7 c 11.8 -7.5 19.7 -20.7 19.7 -35.7 z" stroke-linecap="round" />
</g>
		<g transform="matrix(0.78 0 0 0.78 -77.87 -256.73)"  >
<path style="stroke: none; stroke-width: 1; stroke-dasharray: none; stroke-linecap: butt; stroke-dashoffset: 0; stroke-linejoin: miter; stroke-miterlimit: 4; fill: rgb(51,51,54); fill-rule: nonzero; opacity: 1;"  transform=" translate(-412.4, -183.55)" d="M 440.4 278.8 h -57.8 V 173.2 c -11.3 -9 -17.9 -22.7 -17.9 -37.2 c 0 -26.3 21.4 -47.7 47.7 -47.7 c 26.3 0 47.7 21.4 47.7 47.7 c 0 15.4 -7.3 29.7 -19.7 38.6 v 104.2 z m -46.8 -11 h 35.8 v -99.2 l 2.6 -1.6 c 10.7 -6.8 17.2 -18.4 17.2 -31.1 c 0 -20.2 -16.5 -36.7 -36.7 -36.7 c -20.2 0 -36.7 16.5 -36.7 36.7 c 0 11.9 5.8 23.1 15.6 30 l 2.3 1.6 v 100.3 z" stroke-linecap="round" />
</g>
		<g transform="matrix(0.78 0 0 0.78 -171.86 64.15)"  >
<path style="stroke: none; stroke-width: 1; stroke-dasharray: none; stroke-linecap: butt; stroke-dashoffset: 0; stroke-linejoin: miter; stroke-miterlimit: 4; fill: rgb(255,214,50); fill-rule: nonzero; opacity: 1;"  transform=" translate(-292.15, -594.45)" d="M 321.4 381.9 v 357.3 H 214.3 V 807 h 23.5 c 4 -11.6 15 -20 28 -20 s 24 8.3 28 20 H 370 V 381.9 h -48.6 z" stroke-linecap="round" />
</g>
		<g transform="matrix(0.78 0 0 0.78 -171.98 64.14)"  >
<path style="stroke: none; stroke-width: 1; stroke-dasharray: none; stroke-linecap: butt; stroke-dashoffset: 0; stroke-linejoin: miter; stroke-miterlimit: 4; fill: rgb(51,51,54); fill-rule: nonzero; opacity: 1;"  transform=" translate(-292, -594.45)" d="M 375.4 812.5 h -85.7 l -1.3 -3.7 c -3.3 -9.7 -12.5 -16.3 -22.8 -16.3 s -19.4 6.5 -22.8 16.3 l -1.3 3.7 h -32.9 v -78.8 h 107.2 V 376.4 h 59.5 v 436.1 z m -78 -11 h 67.1 V 387.4 H 327 v 357.3 H 219.8 v 56.8 H 234 c 5.8 -12.1 18 -20 31.7 -20 c 13.6 0 25.9 7.9 31.7 20 z" stroke-linecap="round" />
</g>
		<g transform="matrix(0.78 0 0 0.78 -27.61 92.93)"  >
<path style="stroke: none; stroke-width: 1; stroke-dasharray: none; stroke-linecap: butt; stroke-dashoffset: 0; stroke-linejoin: miter; stroke-miterlimit: 4; fill: rgb(255,214,50); fill-rule: nonzero; opacity: 1;"  transform=" translate(-476.7, -631.35)" d="M 452.5 381.9 H 501 v 460.9 c 0 21 -17 38 -38 38 c -5.8 0 -10.6 -4.7 -10.6 -10.6 V 381.9 z" stroke-linecap="round" />
</g>
		<g transform="matrix(0.78 0 0 0.78 -27.65 92.88)"  >
<path style="stroke: none; stroke-width: 1; stroke-dasharray: none; stroke-linecap: butt; stroke-dashoffset: 0; stroke-linejoin: miter; stroke-miterlimit: 4; fill: rgb(51,51,54); fill-rule: nonzero; opacity: 1;"  transform=" translate(-476.65, -631.3)" d="M 463 886.2 c -8.9 0 -16.1 -7.2 -16.1 -16.1 V 376.4 h 59.5 v 466.4 c 0.1 23.9 -19.4 43.4 -43.4 43.4 z m -5 -498.8 v 482.8 c 0 2.8 2.3 5.1 5.1 5.1 c 17.9 0 32.5 -14.6 32.5 -32.5 V 387.4 H 458 z" stroke-linecap="round" />
</g>
		<g transform="matrix(0.78 0 0 0.78 -78.8 -86.73)"  >
<path style="stroke: none; stroke-width: 1; stroke-dasharray: none; stroke-linecap: butt; stroke-dashoffset: 0; stroke-linejoin: miter; stroke-miterlimit: 4; fill: rgb(104,162,64); fill-rule: nonzero; opacity: 1;"  transform=" translate(-411.31, -401.23)" d="M 509.2 381.9 c 4 -11.4 6 -23.7 5.8 -36.4 c -1.2 -55.6 -46.8 -100.8 -102.4 -101.4 c -57.9 -0.7 -105 46 -105 103.7 c 0 12 2 23.5 5.8 34.2 l 72.2 159.8 c 10 22.1 41.4 22.1 51.4 0 l 72.2 -159.9 z" stroke-linecap="round" />
</g>
		<g transform="matrix(0.78 0 0 0.78 -78.8 -86.77)"  >
<path style="stroke: none; stroke-width: 1; stroke-dasharray: none; stroke-linecap: butt; stroke-dashoffset: 0; stroke-linejoin: miter; stroke-miterlimit: 4; fill: rgb(51,51,54); fill-rule: nonzero; opacity: 1;"  transform=" translate(-411.31, -401.2)" d="M 411.3 563.8 c -13.4 0 -25.2 -7.6 -30.7 -19.8 l -72.3 -160 l -0.1 -0.2 c -4 -11.6 -6.1 -23.7 -6.1 -36 c 0 -29.4 11.5 -57 32.5 -77.7 c 20.9 -20.7 48.6 -31.8 78.1 -31.5 c 28.3 0.3 55.1 11.6 75.4 31.7 c 20.3 20.1 31.8 46.8 32.4 75.1 c 0.3 13.1 -1.8 26.1 -6.1 38.4 l -0.2 0.5 L 442 543.9 c -5.5 12.3 -17.3 19.9 -30.7 19.9 z m -92.8 -184 l 72.1 159.6 c 3.7 8.2 11.7 13.4 20.7 13.4 s 17 -5.1 20.7 -13.4 l 72.1 -159.6 c 3.8 -11 5.6 -22.5 5.4 -34.3 c -0.5 -25.5 -10.9 -49.4 -29.2 -67.5 s -42.3 -28.2 -67.8 -28.5 c -26.4 -0.3 -51.4 9.7 -70.2 28.3 c -18.8 18.6 -29.2 43.4 -29.2 69.9 c 0 11 1.8 21.8 5.4 32.1 z" stroke-linecap="round" />
</g>
		<g transform="matrix(0.78 0 0 0.78 -78.73 -128.42)"  >
<path style="stroke: none; stroke-width: 1; stroke-dasharray: none; stroke-linecap: butt; stroke-dashoffset: 0; stroke-linejoin: miter; stroke-miterlimit: 4; fill: rgb(255,214,50); fill-rule: nonzero; opacity: 1;"  transform=" translate(-411.3, -347.7)" d="M 411.3 347.7 m -50.2 0 a 50.2 50.2 0 1 0 100.4 0 a 50.2 50.2 0 1 0 -100.4 0 Z" stroke-linecap="round" />
</g>
		<g transform="matrix(0.78 0 0 0.78 -78.74 -128.43)"  >
<path style="stroke: none; stroke-width: 1; stroke-dasharray: none; stroke-linecap: butt; stroke-dashoffset: 0; stroke-linejoin: miter; stroke-miterlimit: 4; fill: rgb(51,51,54); fill-rule: nonzero; opacity: 1;"  transform=" translate(-411.3, -347.7)" d="M 411.3 403.4 c -30.7 0 -55.7 -25 -55.7 -55.7 s 25 -55.7 55.7 -55.7 s 55.7 25 55.7 55.7 s -25 55.7 -55.7 55.7 z m 0 -100.3 c -24.6 0 -44.7 20 -44.7 44.7 s 20 44.7 44.7 44.7 s 44.7 -20 44.7 -44.7 s -20 -44.7 -44.7 -44.7 z" stroke-linecap="round" />
</g>
		<g transform="matrix(0.78 0 0 0.78 175.84 61.45)"  >
<path style="stroke: none; stroke-width: 1; stroke-dasharray: none; stroke-linecap: butt; stroke-dashoffset: 0; stroke-linejoin: miter; stroke-miterlimit: 4; fill: rgb(104,162,64); fill-rule: nonzero; opacity: 1;"  transform=" translate(-737.25, -591)" d="M 628.4 467.8 c 1.8 -0.1 3.7 -0.1 5.6 -0.1 c 68.1 0 123.3 55.2 123.3 123.3 S 702 714.2 634 714.2 c -1.9 0 -3.7 0 -5.6 -0.1 V 803 c 1.8 0 3.7 0.1 5.6 0.1 c 117.2 0 212.1 -95 212.1 -212.1 s -95 -212.1 -212.1 -212.1 c -1.9 0 -3.7 0 -5.6 0.1 v 88.8 z" stroke-linecap="round" />
</g>
		<g transform="matrix(0.78 0 0 0.78 175.87 61.37)"  >
<path style="stroke: none; stroke-width: 1; stroke-dasharray: none; stroke-linecap: butt; stroke-dashoffset: 0; stroke-linejoin: miter; stroke-miterlimit: 4; fill: rgb(51,51,54); fill-rule: nonzero; opacity: 1;"  transform=" translate(-737.3, -590.9)" d="M 634 809.1 c -1.9 0 -3.8 0 -5.7 -0.1 l -5.9 -0.1 V 707.8 l 6.3 0.3 c 1.9 0.1 3.6 0.1 5.3 0.1 c 64.6 0 117.2 -52.6 117.2 -117.2 S 698.6 473.7 634 473.7 c -1.7 0 -3.4 0 -5.3 0.1 l -6.3 0.3 V 373 l 5.9 -0.2 c 1.9 0 3.8 -0.1 5.7 -0.1 c 120.3 0 218.2 97.9 218.2 218.2 c -0.1 120.4 -97.9 218.2 -218.2 218.2 z m 0.4 -88.9 V 797 c 113.4 -0.3 205.6 -92.6 205.6 -206.1 s -92.2 -205.8 -205.6 -206.1 v 76.8 c 71.1 0.3 128.8 58.2 128.8 129.3 S 705.5 720 634.4 720.2 z" stroke-linecap="round" />
</g>
		<g transform="matrix(0.78 0 0 0.78 107.28 61.66)"  >
<path style="stroke: none; stroke-width: 1; stroke-dasharray: none; stroke-linecap: butt; stroke-dashoffset: 0; stroke-linejoin: miter; stroke-miterlimit: 4; fill: rgb(255,214,50); fill-rule: nonzero; opacity: 1;"  transform=" translate(-649.4, -591)" d="M 649.4 591 m -47 0 a 47 47 0 1 0 94 0 a 47 47 0 1 0 -94 0 Z" stroke-linecap="round" />
</g>
		<g transform="matrix(0.78 0 0 0.78 107.28 61.65)"  >
<path style="stroke: none; stroke-width: 1; stroke-dasharray: none; stroke-linecap: butt; stroke-dashoffset: 0; stroke-linejoin: miter; stroke-miterlimit: 4; fill: rgb(51,51,54); fill-rule: nonzero; opacity: 1;"  transform=" translate(-649.4, -591)" d="M 649.4 644 c -29.2 0 -53 -23.8 -53 -53 s 23.8 -53 53 -53 s 53 23.8 53 53 s -23.8 53 -53 53 z m 0 -94 c -22.6 0 -40.9 18.4 -40.9 40.9 c 0 22.6 18.4 40.9 40.9 40.9 s 40.9 -18.4 40.9 -40.9 s -18.4 -40.9 -40.9 -40.9 z" stroke-linecap="round" />
</g>
		<g transform="matrix(0.78 0 0 0.78 -78.7 -128.39)"  >
<path style="stroke: none; stroke-width: 1; stroke-dasharray: none; stroke-linecap: butt; stroke-dashoffset: 0; stroke-linejoin: miter; stroke-miterlimit: 4; fill: rgb(213,217,207); fill-rule: nonzero; opacity: 1;"  transform=" translate(-411.3, -347.7)" d="M 411.3 347.7 m -22.4 0 a 22.4 22.4 0 1 0 44.8 0 a 22.4 22.4 0 1 0 -44.8 0 Z" stroke-linecap="round" />
</g>
		<g transform="matrix(0.78 0 0 0.78 -78.71 -128.4)"  >
<path style="stroke: none; stroke-width: 1; stroke-dasharray: none; stroke-linecap: butt; stroke-dashoffset: 0; stroke-linejoin: miter; stroke-miterlimit: 4; fill: rgb(51,51,54); fill-rule: nonzero; opacity: 1;"  transform=" translate(-411.3, -347.7)" d="M 411.3 375.6 c -15.4 0 -27.9 -12.5 -27.9 -27.9 s 12.5 -27.9 27.9 -27.9 s 27.9 12.5 27.9 27.9 s -12.5 27.9 -27.9 27.9 z m 0 -44.8 c -9.3 0 -16.9 7.6 -16.9 16.9 s 7.6 16.9 16.9 16.9 s 16.9 -7.6 16.9 -16.9 s -7.6 -16.9 -16.9 -16.9 z" stroke-linecap="round" />
</g>
		<g transform="matrix(0.78 0 0 0.78 -245.19 203.31)"  >
<path style="stroke: none; stroke-width: 1; stroke-dasharray: none; stroke-linecap: butt; stroke-dashoffset: 0; stroke-linejoin: miter; stroke-miterlimit: 4; fill: rgb(104,162,64); fill-rule: nonzero; opacity: 1;"  transform=" translate(-198.2, -772.35)" d="M 205.4 836.6 H 191 c -7.5 0 -13.6 -6.1 -13.6 -13.6 V 721.7 c 0 -7.5 6.1 -13.6 13.6 -13.6 h 14.4 c 7.5 0 13.6 6.1 13.6 13.6 V 823 c 0.1 7.5 -6 13.6 -13.6 13.6 z" stroke-linecap="round" />
</g>
		<g transform="matrix(0.78 0 0 0.78 -245.19 203.31)"  >
<path style="stroke: none; stroke-width: 1; stroke-dasharray: none; stroke-linecap: butt; stroke-dashoffset: 0; stroke-linejoin: miter; stroke-miterlimit: 4; fill: rgb(51,51,54); fill-rule: nonzero; opacity: 1;"  transform=" translate(-198.2, -772.35)" d="M 205.4 842.1 H 191 c -10.6 0 -19.1 -8.6 -19.1 -19.1 V 721.7 c 0 -10.6 8.6 -19.1 19.1 -19.1 h 14.4 c 10.6 0 19.1 8.6 19.1 19.1 V 823 c 0.1 10.5 -8.5 19.1 -19.1 19.1 z M 191 713.5 c -4.5 0 -8.1 3.6 -8.1 8.1 V 823 c 0 4.5 3.6 8.1 8.1 8.1 h 14.4 c 4.5 0 8.1 -3.6 8.1 -8.1 V 721.7 c 0 -4.5 -3.6 -8.1 -8.1 -8.1 H 191 z" stroke-linecap="round" />
</g>
		<g transform="matrix(0.78 0 0 0.78 78.03 61.32)"  >
<path style="stroke: none; stroke-width: 1; stroke-dasharray: none; stroke-linecap: butt; stroke-dashoffset: 0; stroke-linejoin: miter; stroke-miterlimit: 4; fill: rgb(104,162,64); fill-rule: nonzero; opacity: 1;"  transform=" translate(-611.95, -590.9)" d="M 568.6 841.8 V 340.1 c 0 -4.8 3.9 -8.8 8.8 -8.8 h 69.1 c 4.8 0 8.8 3.9 8.8 8.8 v 501.6 c 0 4.8 -3.9 8.8 -8.8 8.8 h -69.1 c -4.9 0 -8.8 -3.9 -8.8 -8.7 z" stroke-linecap="round" />
</g>
		<g transform="matrix(0.78 0 0 0.78 77.98 61.39)"  >
<path style="stroke: none; stroke-width: 1; stroke-dasharray: none; stroke-linecap: butt; stroke-dashoffset: 0; stroke-linejoin: miter; stroke-miterlimit: 4; fill: rgb(51,51,54); fill-rule: nonzero; opacity: 1;"  transform=" translate(-611.9, -591)" d="M 645.6 856.6 h -67.4 c -8.6 0 -15.6 -7 -15.6 -15.6 V 341 c 0 -8.6 7 -15.6 15.6 -15.6 h 67.4 c 8.6 0 15.6 7 15.6 15.6 v 499.9 c 0 8.7 -7 15.7 -15.6 15.7 z m -67.4 -519.2 c -2 0 -3.6 1.6 -3.6 3.6 v 499.9 c 0 2 1.6 3.6 3.6 3.6 h 67.4 c 2 0 3.6 -1.6 3.6 -3.6 V 341 c 0 -2 -1.6 -3.6 -3.6 -3.6 h -67.4 z" stroke-linecap="round" />
</g>
		<g transform="matrix(0.78 0 0 0.78 57.39 48.35)"  >
<path style="stroke: none; stroke-width: 1; stroke-dasharray: none; stroke-linecap: butt; stroke-dashoffset: 0; stroke-linejoin: miter; stroke-miterlimit: 4; fill: rgb(51,51,54); fill-rule: nonzero; opacity: 1;"  transform=" translate(-585.5, -574.2)" d="M 602.4 385.5 h -33.8 c -2.4 0 -4.4 -2 -4.4 -4.4 s 2 -4.4 4.4 -4.4 h 33.8 c 2.4 0 4.4 2 4.4 4.4 s -2 4.4 -4.4 4.4 z M 590.7 420.7 h -22.1 c -2.4 0 -4.4 -2 -4.4 -4.4 c 0 -2.4 2 -4.4 4.4 -4.4 h 22.1 c 2.4 0 4.4 2 4.4 4.4 c 0 2.4 -2 4.4 -4.4 4.4 z M 602.4 455.8 h -33.8 c -2.4 0 -4.4 -2 -4.4 -4.4 c 0 -2.4 2 -4.4 4.4 -4.4 h 33.8 c 2.4 0 4.4 2 4.4 4.4 c 0 2.4 -2 4.4 -4.4 4.4 z M 590.7 490.9 h -22.1 c -2.4 0 -4.4 -2 -4.4 -4.4 c 0 -2.4 2 -4.4 4.4 -4.4 h 22.1 c 2.4 0 4.4 2 4.4 4.4 c 0 2.4 -2 4.4 -4.4 4.4 z M 602.4 526 h -33.8 c -2.4 0 -4.4 -2 -4.4 -4.4 s 2 -4.4 4.4 -4.4 h 33.8 c 2.4 0 4.4 2 4.4 4.4 s -2 4.4 -4.4 4.4 z M 590.7 561.1 h -22.1 c -2.4 0 -4.4 -2 -4.4 -4.4 s 2 -4.4 4.4 -4.4 h 22.1 c 2.4 0 4.4 2 4.4 4.4 s -2 4.4 -4.4 4.4 z M 602.4 596.2 h -33.8 c -2.4 0 -4.4 -2 -4.4 -4.4 c 0 -2.4 2 -4.4 4.4 -4.4 h 33.8 c 2.4 0 4.4 2 4.4 4.4 c 0 2.4 -2 4.4 -4.4 4.4 z M 590.7 631.3 h -22.1 c -2.4 0 -4.4 -2 -4.4 -4.4 c 0 -2.4 2 -4.4 4.4 -4.4 h 22.1 c 2.4 0 4.4 2 4.4 4.4 c 0 2.4 -2 4.4 -4.4 4.4 z M 602.4 666.4 h -33.8 c -2.4 0 -4.4 -2 -4.4 -4.4 c 0 -2.4 2 -4.4 4.4 -4.4 h 33.8 c 2.4 0 4.4 2 4.4 4.4 c 0 2.4 -2 4.4 -4.4 4.4 z M 590.7 701.5 h -22.1 c -2.4 0 -4.4 -2 -4.4 -4.4 c 0 -2.4 2 -4.4 4.4 -4.4 h 22.1 c 2.4 0 4.4 2 4.4 4.4 c 0 2.4 -2 4.4 -4.4 4.4 z M 602.4 736.6 h -33.8 c -2.4 0 -4.4 -2 -4.4 -4.4 c 0 -2.4 2 -4.4 4.4 -4.4 h 33.8 c 2.4 0 4.4 2 4.4 4.4 c 0 2.4 -2 4.4 -4.4 4.4 z M 590.7 771.7 h -22.1 c -2.4 0 -4.4 -2 -4.4 -4.4 c 0 -2.4 2 -4.4 4.4 -4.4 h 22.1 c 2.4 0 4.4 2 4.4 4.4 c 0 2.4 -2 4.4 -4.4 4.4 z" stroke-linecap="round" />
</g>
		<g transform="matrix(0.78 0 0 0.78 57.39 226.87)"  >
<path style="stroke: none; stroke-width: 1; stroke-dasharray: none; stroke-linecap: butt; stroke-dashoffset: 0; stroke-linejoin: miter; stroke-miterlimit: 4; fill: rgb(51,51,54); fill-rule: nonzero; opacity: 1;"  transform=" translate(-585.5, -802.4)" d="M 602.4 806.8 h -33.8 c -2.4 0 -4.4 -2 -4.4 -4.4 s 2 -4.4 4.4 -4.4 h 33.8 c 2.4 0 4.4 2 4.4 4.4 s -2 4.4 -4.4 4.4 z" stroke-linecap="round" />
</g>
		<g transform="matrix(0.78 0 0 0.78 194.86 68.71)"  >
<path style="stroke: none; stroke-width: 1; stroke-dasharray: none; stroke-linecap: butt; stroke-dashoffset: 0; stroke-linejoin: miter; stroke-miterlimit: 4; fill: rgb(51,51,54); fill-rule: nonzero; opacity: 1;"  transform=" translate(-761.56, -600.27)" d="M 817.1 596.2 c -2.4 0 -4.3 -1.9 -4.4 -4.3 c -0.1 -2.4 1.8 -4.4 4.3 -4.5 l 29 -0.8 h 0.1 c 2.4 0 4.3 1.9 4.4 4.3 c 0.1 2.4 -1.8 4.4 -4.3 4.5 l -29 0.8 h -0.1 z M 837.8 650.2 c -0.3 0 -0.7 0 -1 -0.1 l -24.8 -6 c -2.4 -0.6 -3.8 -2.9 -3.2 -5.3 c 0.6 -2.4 2.9 -3.8 5.3 -3.2 l 24.8 6 c 2.4 0.6 3.8 2.9 3.2 5.3 c -0.6 2 -2.4 3.3 -4.3 3.3 z M 815.5 701 c -0.7 0 -1.4 -0.2 -2.1 -0.5 l -21.7 -11.9 c -2.1 -1.2 -2.9 -3.8 -1.7 -6 c 1.2 -2.1 3.8 -2.9 6 -1.7 l 21.7 11.9 c 2.1 1.2 2.9 3.8 1.7 6 c -0.8 1.4 -2.3 2.2 -3.9 2.2 z M 780.9 744.4 c -1.1 0 -2.2 -0.4 -3 -1.2 l -22.3 -21.3 c -1.8 -1.7 -1.8 -4.5 -0.1 -6.2 c 1.7 -1.8 4.5 -1.8 6.2 -0.1 l 22.3 21.3 c 1.8 1.7 1.8 4.5 0.1 6.2 c -0.9 0.8 -2.1 1.3 -3.2 1.3 z M 736.2 777.2 c -1.5 0 -2.9 -0.8 -3.8 -2.1 l -14.3 -23.5 c -1.3 -2.1 -0.6 -4.8 1.5 -6 c 2.1 -1.3 4.8 -0.6 6 1.5 l 14.3 23.5 c 1.3 2.1 0.6 4.8 -1.5 6 c -0.6 0.4 -1.4 0.6 -2.2 0.6 z M 684.5 797.4 c -1.9 0 -3.6 -1.2 -4.2 -3.2 l -7.5 -25.8 c -0.7 -2.3 0.7 -4.8 3 -5.4 c 2.3 -0.7 4.8 0.7 5.4 3 l 7.5 25.8 c 0.7 2.3 -0.7 4.8 -3 5.4 c -0.3 0.2 -0.8 0.2 -1.2 0.2 z M 804.8 550.3 c -1.9 0 -3.6 -1.2 -4.2 -3.2 c -0.7 -2.3 0.7 -4.8 3 -5.4 l 33.8 -9.9 c 2.3 -0.7 4.8 0.7 5.4 3 c 0.7 2.3 -0.7 4.8 -3 5.4 l -33.8 9.9 c -0.4 0.1 -0.8 0.2 -1.2 0.2 z M 793.8 503.4 c -1.5 0 -2.9 -0.8 -3.8 -2.1 c -1.3 -2.1 -0.6 -4.8 1.5 -6 l 23.3 -14.2 c 2.1 -1.3 4.8 -0.6 6 1.5 c 1.3 2.1 0.6 4.8 -1.5 6 L 796 502.8 c -0.6 0.4 -1.4 0.6 -2.2 0.6 z M 763.8 465.7 c -1.1 0 -2.2 -0.4 -3 -1.2 c -1.8 -1.7 -1.8 -4.5 -0.1 -6.2 L 780 438 c 1.7 -1.8 4.5 -1.8 6.2 -0.1 c 1.8 1.7 1.8 4.5 0.1 6.2 L 767 464.3 c -0.9 0.9 -2.1 1.4 -3.2 1.4 z M 725.1 437.3 c -0.7 0 -1.4 -0.2 -2.1 -0.5 c -2.1 -1.2 -2.9 -3.8 -1.7 -6 l 13.9 -25.4 c 1.2 -2.1 3.8 -2.9 6 -1.7 c 2.1 1.2 2.9 3.8 1.7 6 l -14 25.3 c -0.8 1.5 -2.3 2.3 -3.8 2.3 z" stroke-linecap="round" />
</g>
		<g transform="matrix(0.78 0 0 0.78 193.5 -36.8)"  >
<path style="stroke: none; stroke-width: 1; stroke-dasharray: none; stroke-linecap: butt; stroke-dashoffset: 0; stroke-linejoin: miter; stroke-miterlimit: 4; fill: rgb(51,51,54); fill-rule: nonzero; opacity: 1;"  transform=" translate(-759.82, -465.03)" d="M 812.9 547.9 c -1.9 0 -3.6 -1.2 -4.2 -3.2 c -0.7 -2.3 0.7 -4.8 3 -5.4 l 25.7 -7.5 c 2.3 -0.7 4.8 0.7 5.4 3 c 0.7 2.3 -0.7 4.8 -3 5.4 l -25.7 7.5 c -0.3 0.1 -0.8 0.2 -1.2 0.2 z M 681 418 c -0.3 0 -0.7 0 -1 -0.1 c -2.4 -0.6 -3.8 -2.9 -3.2 -5.3 l 6.6 -27.1 c 0.6 -2.4 3 -3.8 5.3 -3.2 c 2.4 0.6 3.8 2.9 3.2 5.3 l -6.6 27.1 c -0.5 1.9 -2.3 3.3 -4.3 3.3 z" stroke-linecap="round" />
</g>
</g>
</g>


<g transform="matrix(0.26 0 0 0.26 421 287)"  >
<g style=""   >
		<g transform="matrix(0.78 0 0 0.78 182.99 -182.53)"  >
<path style="stroke: none; stroke-width: 1; stroke-dasharray: none; stroke-linecap: butt; stroke-dashoffset: 0; stroke-linejoin: miter; stroke-miterlimit: 4; fill: rgb(108,72,32); fill-rule: nonzero; opacity: 1;"  transform=" translate(-746.5, -278.7)" d="M 763.290291 71.756908 L 575.819197 421.651209 c -2.963412 5.50348 -1.058361 12.559223 4.304003 15.66375 c 5.291807 3.104527 12.065321 1.058361 15.028733 -4.445118 l 187.541652 -349.894302 c 2.963412 -5.50348 1.058361 -12.559223 -4.304003 -15.66375 c -5.362365 -3.104527 -12.135878 -1.058361 -15.099291 4.445119 z M 897.843313 124.533866 l -187.541652 349.894302 c -2.963412 5.50348 -1.058361 12.559223 4.304003 15.66375 c 5.291807 3.104527 12.065321 1.058361 15.028733 -4.445119 l 187.541652 -349.894301 c 2.963412 -5.50348 1.058361 -12.559223 -4.304003 -15.66375 c -5.291807 -3.104527 -12.065321 -1.128919 -15.028733 4.445118 z" stroke-linecap="round" />
</g>
		<g transform="matrix(0.78 0 0 0.78 -29.3 -18.91)"  >
<path style="stroke: none; stroke-width: 1; stroke-dasharray: none; stroke-linecap: butt; stroke-dashoffset: 0; stroke-linejoin: miter; stroke-miterlimit: 4; fill: rgb(245,236,218); fill-rule: nonzero; opacity: 1;"  transform=" translate(-475.12, -488.07)" d="M 94.4764 538.423758 s -29.845793 -63.148901 35.560946 -82.693309 c 13.758699 -25.25956 60.820506 -140.056501 172.23069 -60.820506 C 313.768897 366.193068 415.936057 241.024185 555.992558 373.107697 c 40.217736 -24.130641 143.513815 -49.107972 159.60091 52.98863 c 29.845793 -24.271756 78.107076 -23.142837 75.778681 43.463378 c 20.673327 8.043547 64.27782 14.958175 71.192448 68.864053 c -187.118308 99.909323 -617.659753 124.039964 -617.659753 124.039964 l -112.539103 -68.864053 l -37.889341 -55.175911 z" stroke-linecap="round" />
</g>
		<g transform="matrix(0.78 0 0 0.78 -29.34 197.96)"  >
<path style="stroke: none; stroke-width: 1; stroke-dasharray: none; stroke-linecap: butt; stroke-dashoffset: 0; stroke-linejoin: miter; stroke-miterlimit: 4; fill: rgb(219,145,69); fill-rule: nonzero; opacity: 1;"  transform=" translate(-475.13, -765.76)" d="M 50.589678 538.423758 c 5.574037 252.101702 193.468477 454.672087 424.544064 454.672087 s 418.970027 -202.570385 424.544064 -454.672087 H 50.589678 z" stroke-linecap="round" />
</g>
		<g transform="matrix(0.78 0 0 0.78 -29.27 280.12)"  >
<path style="stroke: none; stroke-width: 1; stroke-dasharray: none; stroke-linecap: butt; stroke-dashoffset: 0; stroke-linejoin: miter; stroke-miterlimit: 4; fill: rgb(91,43,32); fill-rule: nonzero; opacity: 1;"  transform=" translate(-475.13, -870.75)" d="M 475.133742 931.42865 c -148.452835 0 -281.735823 -70.769104 -373.742713 -183.096534 c 71.756908 145.771653 212.166196 244.834287 373.742713 244.834287 s 301.915248 -99.062634 373.742714 -244.834287 c -92.00689 112.327431 -225.289878 183.096534 -373.742714 183.096534 z" stroke-linecap="round" />
</g>
		<g transform="matrix(0.78 0 0 0.78 -35.12 -72.99)"  >
<path style="stroke: none; stroke-width: 1; stroke-dasharray: none; stroke-linecap: butt; stroke-dashoffset: 0; stroke-linejoin: miter; stroke-miterlimit: 4; fill: rgb(255,255,255); fill-rule: nonzero; opacity: 1;"  transform=" translate(-467.53, -418.69)" d="M 349.823744 393.146007 s 0.070557 -0.141115 0.211673 -0.493902 c 0.141115 -0.352787 0.352787 -0.776132 0.635016 -1.411149 c 0.28223 -0.564459 0.635017 -1.340591 1.128919 -2.116723 c 0.423345 -0.846689 0.987804 -1.763936 1.622821 -2.751739 c 1.270034 -2.046166 2.963412 -4.304003 5.009578 -6.844071 c 0.493902 -0.635017 1.058361 -1.270034 1.622821 -1.905051 c 0.564459 -0.635017 1.199476 -1.270034 1.763936 -1.975608 c 1.270034 -1.340591 2.610625 -2.610625 4.092331 -3.951216 c 1.481706 -1.340591 3.03397 -2.681182 4.727347 -4.021774 c 0.846689 -0.705574 1.693378 -1.270034 2.610625 -1.975608 l 2.75174 -1.90505 c 1.905051 -1.270034 3.880659 -2.540068 5.926824 -3.668987 c 1.058361 -0.564459 2.116723 -1.199476 3.175085 -1.693378 c 1.058361 -0.564459 2.18728 -1.128919 3.316199 -1.622821 c 1.128919 -0.564459 2.257838 -1.058361 3.457314 -1.481706 c 1.199476 -0.493902 2.328395 -0.987804 3.527872 -1.411149 c 2.398953 -0.846689 4.868463 -1.763936 7.40853 -2.398952 c 1.270034 -0.352787 2.540068 -0.705574 3.810101 -0.987804 c 1.270034 -0.28223 2.610625 -0.564459 3.951217 -0.84669 c 2.610625 -0.564459 5.291807 -0.846689 7.972989 -1.199476 c 2.681182 -0.28223 5.362365 -0.423345 8.114105 -0.564459 h 4.021773 l 2.046166 0.070557 h 0.987804 l 0.987804 0.070557 c 5.362365 0.352787 10.583615 1.128919 15.522635 2.398953 c 4.93902 1.199476 9.595811 2.822297 13.899814 4.727348 c 1.058361 0.493902 2.116723 0.987804 3.104527 1.481706 l 2.963412 1.481706 c 1.905051 1.128919 3.668986 2.18728 5.362365 3.316199 c 0.846689 0.564459 1.622821 1.128919 2.398952 1.693379 c 0.776132 0.564459 1.552263 1.128919 2.257838 1.693378 c 0.705574 0.564459 1.411149 1.128919 2.046166 1.693378 c 0.352787 0.28223 0.635017 0.564459 0.987804 0.84669 c 0.28223 0.28223 0.635017 0.564459 0.917246 0.846689 c 1.199476 1.199476 2.257838 2.18728 3.245642 3.245642 c 0.493902 0.493902 0.917247 0.987804 1.411149 1.481706 c 0.423345 0.423345 0.846689 0.987804 1.199476 1.481706 c 0.776132 0.917247 1.411149 1.763936 1.905051 2.540067 c 0.564459 0.776132 0.987804 1.411149 1.340591 1.975608 c 0.352787 0.493902 0.635017 0.987804 0.776132 1.270034 c 0.141115 0.28223 0.28223 0.423345 0.282229 0.423345 l -0.987804 1.834493 s -0.564459 -0.211672 -1.552263 -0.705574 c -0.987804 -0.493902 -2.46951 -1.128919 -4.304003 -1.975608 c -0.917247 -0.493902 -1.975608 -0.846689 -3.104527 -1.340592 c -1.128919 -0.423345 -2.398953 -0.987804 -3.739544 -1.481706 c -1.340591 -0.564459 -2.75174 -0.987804 -4.304004 -1.481706 c -0.776132 -0.28223 -1.552263 -0.493902 -2.328395 -0.776132 c -0.776132 -0.28223 -1.622821 -0.564459 -2.46951 -0.776131 c -1.693378 -0.493902 -3.457314 -0.987804 -5.291807 -1.481706 c -1.834493 -0.423345 -3.739544 -0.846689 -5.715152 -1.270034 c -3.951216 -0.776132 -8.114105 -1.411149 -12.418108 -1.905051 c -4.374561 -0.493902 -8.819679 -0.635017 -13.405912 -0.705574 c -1.128919 -0.070557 -2.328395 0.070557 -3.457314 0.070557 c -1.128919 0.070557 -2.328395 0.070557 -3.457314 0.141115 c -1.128919 0.070557 -2.328395 0.211672 -3.457314 0.28223 c -1.128919 0.070557 -2.328395 0.141115 -3.457314 0.352787 c -2.328395 0.28223 -4.65679 0.493902 -6.914629 0.917247 c -1.128919 0.211672 -2.257838 0.352787 -3.457314 0.564459 c -1.128919 0.211672 -2.257838 0.423345 -3.386757 0.705574 c -2.257838 0.423345 -4.445118 0.987804 -6.632398 1.552264 c -1.128919 0.28223 -2.18728 0.564459 -3.245642 0.917247 c -1.058361 0.28223 -2.116723 0.564459 -3.175084 0.917246 c -2.116723 0.635017 -4.162888 1.270034 -6.138497 1.975608 c -1.975608 0.635017 -3.951216 1.411149 -5.856267 2.116723 c -1.905051 0.705574 -3.668986 1.481706 -5.432922 2.187281 c -1.763936 0.776132 -3.457314 1.481706 -5.009578 2.257837 c -3.175084 1.481706 -6.067939 2.963412 -8.608006 4.233446 c -2.540068 1.340591 -4.727348 2.540068 -6.491284 3.598429 c -1.763936 1.058361 -3.104527 1.905051 -4.021773 2.46951 c -0.423345 0.28223 -0.776132 0.493902 -1.058362 0.705575 c -0.211672 0.141115 -0.352787 0.211672 -0.352787 0.211672 l -1.270034 -1.622821 z M 161.364845 481.695583 v -0.493902 c 0 -0.352787 0.070557 -0.846689 0.141115 -1.481706 c 0.070557 -0.635017 0.211672 -1.411149 0.352787 -2.398952 c 0.141115 -0.917247 0.423345 -1.975608 0.705575 -3.104527 c 0.564459 -2.328395 1.411149 -5.009578 2.610625 -8.043548 c 0.28223 -0.776132 0.635017 -1.552263 0.987804 -2.328395 c 0.352787 -0.776132 0.705574 -1.622821 1.058361 -2.398953 c 0.776132 -1.622821 1.693378 -3.316199 2.610625 -5.080135 c 0.917247 -1.763936 2.046166 -3.457314 3.245642 -5.291807 c 0.564459 -0.917247 1.199476 -1.763936 1.834493 -2.681182 c 0.635017 -0.917247 1.270034 -1.834493 1.975608 -2.681183 c 1.411149 -1.763936 2.892855 -3.598429 4.515676 -5.291807 c 0.776132 -0.846689 1.622821 -1.763936 2.46951 -2.610625 l 2.610625 -2.610625 c 0.917247 -0.846689 1.834493 -1.693378 2.822297 -2.540067 c 0.987804 -0.776132 1.905051 -1.693378 2.963412 -2.469511 c 2.046166 -1.552263 4.092331 -3.175084 6.279612 -4.586233 c 1.058361 -0.776132 2.18728 -1.411149 3.316199 -2.18728 c 1.128919 -0.705574 2.328395 -1.340591 3.457314 -1.975608 c 2.328395 -1.340591 4.797905 -2.46951 7.196858 -3.668986 c 2.46951 -1.128919 5.009578 -2.116723 7.479088 -3.03397 c 1.270034 -0.423345 2.540068 -0.846689 3.880658 -1.270034 l 1.905051 -0.564459 l 0.987804 -0.28223 l 0.987804 -0.211672 c 5.150692 -1.340591 10.371942 -2.257838 15.452078 -2.610625 c 5.080135 -0.423345 10.019155 -0.28223 14.675945 0.141115 c 1.128919 0.141115 2.328395 0.28223 3.386757 0.423344 c 1.128919 0.141115 2.18728 0.28223 3.316199 0.493902 c 2.116723 0.423345 4.162888 0.917247 6.138497 1.481706 c 0.987804 0.211672 1.905051 0.564459 2.822297 0.84669 c 0.917247 0.28223 1.834493 0.564459 2.681182 0.917246 c 0.846689 0.352787 1.693378 0.635017 2.469511 0.917247 c 0.423345 0.141115 0.776132 0.28223 1.199476 0.493902 c 0.352787 0.211672 0.776132 0.352787 1.128919 0.564459 c 1.481706 0.705574 2.892855 1.340591 4.092331 2.046166 c 0.635017 0.352787 1.199476 0.635017 1.763936 0.987804 c 0.564459 0.28223 1.058361 0.705574 1.62282 0.987804 c 0.987804 0.635017 1.905051 1.270034 2.610625 1.834493 c 0.776132 0.564459 1.411149 1.058361 1.905051 1.411149 c 0.493902 0.352787 0.917247 0.705574 1.128919 0.917246 c 0.28223 0.211672 0.352787 0.352787 0.352787 0.352787 l -0.352787 2.116723 l -1.693378 -0.211672 c -1.128919 -0.141115 -2.681182 -0.28223 -4.727348 -0.564459 c -0.987804 -0.141115 -2.116723 -0.211672 -3.386757 -0.28223 c -1.199476 -0.070557 -2.540068 -0.141115 -4.021774 -0.211672 c -1.411149 -0.141115 -2.963412 -0.070557 -4.515675 -0.070558 h -5.009578 c -1.763936 0.070557 -3.598429 0.141115 -5.432922 0.28223 c -1.905051 0.141115 -3.810101 0.352787 -5.785709 0.564459 c -3.951216 0.493902 -8.114105 1.199476 -12.418108 2.116723 c -4.304003 0.917247 -8.608007 2.116723 -12.982568 3.598429 c -1.128919 0.352787 -2.18728 0.776132 -3.245641 1.128919 c -1.058361 0.423345 -2.18728 0.776132 -3.245642 1.199476 c -1.058361 0.423345 -2.116723 0.917247 -3.175085 1.340592 c -1.058361 0.493902 -2.18728 0.917247 -3.175084 1.411148 c -2.116723 0.987804 -4.233446 1.905051 -6.279611 3.03397 c -1.058361 0.564459 -2.046166 1.058361 -3.104527 1.622821 c -0.987804 0.564459 -1.975608 1.128919 -3.03397 1.693378 c -2.046166 1.128919 -3.951216 2.398953 -5.856267 3.527872 c -0.987804 0.564459 -1.905051 1.270034 -2.822297 1.834493 c -0.917247 0.635017 -1.834493 1.199476 -2.75174 1.905051 c -1.763936 1.270034 -3.527872 2.540068 -5.22125 3.810101 c -1.693378 1.270034 -3.316199 2.540068 -4.868463 3.810101 c -1.552263 1.270034 -3.03397 2.540068 -4.515675 3.810101 c -1.411149 1.270034 -2.822297 2.46951 -4.021774 3.668987 c -2.540068 2.398953 -4.868463 4.65679 -6.844071 6.702956 c -1.975608 2.046166 -3.668986 3.880659 -5.009577 5.432922 c -1.340591 1.552263 -2.398953 2.75174 -3.03397 3.668986 c -0.352787 0.423345 -0.564459 0.776132 -0.776131 0.987804 c -0.141115 0.211672 -0.28223 0.352787 -0.28223 0.352788 l -1.552264 -1.199477 z M 591.482946 392.934335 s 0.141115 -0.070557 0.352787 -0.28223 c 0.211672 -0.141115 0.564459 -0.423345 1.058362 -0.705574 c 0.423345 -0.28223 0.987804 -0.705574 1.693378 -1.058362 c 0.635017 -0.423345 1.411149 -0.846689 2.328396 -1.270034 c 1.763936 -0.917247 3.880659 -1.763936 6.420726 -2.610624 c 0.635017 -0.211672 1.270034 -0.423345 1.975608 -0.56446 c 0.635017 -0.211672 1.340591 -0.352787 2.046165 -0.564459 c 1.411149 -0.352787 2.892855 -0.635017 4.515676 -0.917247 c 3.175084 -0.564459 6.561841 -0.846689 10.16027 -0.776132 c 1.834493 0 3.668986 0.070557 5.574037 0.28223 c 0.917247 0.070557 1.905051 0.141115 2.892855 0.352787 c 0.987804 0.141115 1.905051 0.28223 2.892854 0.423345 c 1.975608 0.352787 3.880659 0.846689 5.926825 1.340591 c 0.987804 0.28223 1.975608 0.564459 2.963412 0.917247 c 0.987804 0.28223 1.975608 0.705574 2.963412 1.058361 c 0.987804 0.352787 1.975608 0.776132 2.963412 1.128919 c 0.987804 0.423345 1.905051 0.846689 2.892855 1.340591 c 1.975608 0.846689 3.810101 1.975608 5.644594 3.03397 c 1.834493 1.128919 3.668986 2.328395 5.362365 3.598429 c 0.846689 0.635017 1.693378 1.340591 2.540068 1.975608 c 0.846689 0.705574 1.693378 1.340591 2.46951 2.046165 c 3.175084 2.822297 6.067939 5.926824 8.537449 9.243024 c 2.46951 3.245642 4.515676 6.632399 6.209054 10.019155 c 0.423345 0.846689 0.776132 1.693378 1.128919 2.540067 c 0.352787 0.846689 0.705574 1.622821 0.987804 2.469511 c 0.564459 1.693378 1.128919 3.316199 1.552263 4.868462 c 0.211672 0.776132 0.423345 1.552263 0.56446 2.328396 c 0.141115 0.776132 0.352787 1.481706 0.423344 2.257837 c 0.141115 0.705574 0.211672 1.481706 0.352787 2.116723 c 0.070557 0.352787 0.141115 0.705574 0.141115 0.987804 c 0 0.352787 0.070557 0.705574 0.070558 1.058362 c 0.070557 1.340591 0.211672 2.540068 0.141115 3.739544 c 0 1.128919 0 2.18728 -0.070558 3.175084 s -0.141115 1.834493 -0.28223 2.610625 c -0.070557 0.776132 -0.211672 1.411149 -0.282229 1.975608 c -0.070557 0.493902 -0.211672 0.917247 -0.28223 1.199476 c -0.070557 0.28223 -0.070557 0.423345 -0.070557 0.423345 l -1.905051 0.917247 s -0.211672 -0.423345 -0.635017 -1.128919 c -0.423345 -0.776132 -0.987804 -1.834493 -1.763936 -3.245642 c -0.352787 -0.705574 -0.846689 -1.411149 -1.340591 -2.257838 c -0.493902 -0.776132 -1.058361 -1.693378 -1.622821 -2.610625 c -0.564459 -0.917247 -1.270034 -1.905051 -1.975608 -2.892855 c -0.705574 -0.987804 -1.340591 -2.116723 -2.18728 -3.175084 c -0.846689 -1.058361 -1.693378 -2.18728 -2.540068 -3.316199 c -0.917247 -1.128919 -1.905051 -2.257838 -2.892855 -3.386757 c -2.046166 -2.257838 -4.304003 -4.586233 -6.773513 -6.844071 c -2.46951 -2.257838 -5.080135 -4.515676 -7.902432 -6.632398 c -1.411149 -1.058361 -2.892855 -2.046166 -4.304004 -3.03397 c -1.481706 -0.917247 -2.963412 -1.905051 -4.515675 -2.822297 c -1.552263 -0.917247 -3.03397 -1.834493 -4.656791 -2.681182 l -2.328395 -1.270034 c -0.776132 -0.352787 -1.622821 -0.776132 -2.398953 -1.128919 c -1.552263 -0.776132 -3.175084 -1.411149 -4.797905 -2.116723 c -1.622821 -0.635017 -3.175084 -1.270034 -4.727348 -1.905051 c -1.552263 -0.564459 -3.104527 -1.128919 -4.65679 -1.622821 c -1.552263 -0.564459 -3.03397 -0.987804 -4.515676 -1.411148 c -2.963412 -0.846689 -5.785709 -1.622821 -8.396334 -2.187281 c -2.610625 -0.564459 -5.080135 -1.058361 -7.196858 -1.411148 c -2.18728 -0.352787 -4.092331 -0.635017 -5.644595 -0.846689 c -1.552263 -0.211672 -2.822297 -0.352787 -3.598429 -0.352788 c -0.423345 0 -0.705574 -0.070557 -0.917246 -0.070557 h -0.352787 l -0.211673 -2.328395 z M 712.418384 452.555364 s 0.070557 -0.070557 0.211672 -0.28223 c 0.141115 -0.141115 0.352787 -0.423345 0.635017 -0.776131 c 0.28223 -0.352787 0.635017 -0.705574 1.058361 -1.128919 c 0.423345 -0.423345 0.917247 -0.846689 1.481706 -1.340591 c 1.128919 -0.987804 2.540068 -1.975608 4.162889 -2.892855 c 1.622821 -0.917247 3.527872 -1.905051 5.644594 -2.610625 c 4.162888 -1.481706 9.172466 -2.328395 14.464274 -1.834493 c 1.340591 0.070557 2.681182 0.28223 4.021773 0.564459 c 0.635017 0.141115 1.340591 0.28223 2.046166 0.493902 c 0.635017 0.141115 1.340591 0.352787 1.975608 0.56446 c 1.340591 0.423345 2.681182 0.917247 3.951216 1.481706 c 1.340591 0.564459 2.610625 1.270034 3.810101 1.975608 c 1.270034 0.705574 2.46951 1.552263 3.598429 2.398952 c 0.564459 0.423345 1.128919 0.917247 1.693379 1.340592 c 0.564459 0.493902 1.128919 0.917247 1.62282 1.411148 c 1.058361 0.987804 2.046166 2.046166 2.963413 3.104527 c 0.917247 1.128919 1.763936 2.18728 2.540067 3.386757 c 1.552263 2.328395 2.75174 4.797905 3.598429 7.196858 c 0.423345 1.199476 0.776132 2.398953 1.058362 3.598429 c 0.28223 1.199476 0.423345 2.398953 0.564459 3.527871 c 0.070557 0.564459 0.141115 1.128919 0.141115 1.693379 c 0 0.564459 0.070557 1.058361 0 1.622821 v 2.257838 c 0 0.28223 -0.070557 0.493902 -0.070558 0.776131 c -0.141115 0.987804 -0.211672 1.834493 -0.423344 2.681183 c -0.141115 0.846689 -0.352787 1.552263 -0.56446 2.328395 c -0.211672 0.705574 -0.423345 1.340591 -0.635016 1.905051 c -0.211672 0.564459 -0.423345 0.987804 -0.56446 1.411148 c -0.141115 0.352787 -0.352787 0.705574 -0.423345 0.846689 c -0.070557 0.211672 -0.141115 0.28223 -0.141114 0.28223 l -1.905051 0.917247 s -0.141115 -0.211672 -0.423345 -0.705575 c -0.28223 -0.423345 -0.635017 -1.058361 -1.128919 -1.90505 c -0.493902 -0.846689 -1.128919 -1.763936 -1.834493 -2.892855 c -0.352787 -0.564459 -0.776132 -1.128919 -1.199476 -1.693378 c -0.423345 -0.564459 -0.846689 -1.270034 -1.411149 -1.905051 c -0.493902 -0.635017 -1.058361 -1.270034 -1.552263 -1.975608 c -0.564459 -0.635017 -1.199476 -1.340591 -1.834493 -1.975608 c -1.270034 -1.340591 -2.681182 -2.681182 -4.162889 -4.021774 c -1.481706 -1.340591 -3.104527 -2.681182 -4.797905 -3.880658 c -0.846689 -0.635017 -1.763936 -1.199476 -2.610625 -1.763936 c -0.917247 -0.564459 -1.834493 -1.128919 -2.75174 -1.622821 c -0.917247 -0.564459 -1.834493 -1.058361 -2.822297 -1.552264 c -0.917247 -0.493902 -1.905051 -0.987804 -2.892855 -1.411148 c -0.917247 -0.493902 -1.905051 -0.846689 -2.892855 -1.270034 c -0.987804 -0.352787 -1.905051 -0.776132 -2.892854 -1.128919 c -0.987804 -0.352787 -1.905051 -0.635017 -2.822297 -0.987804 c -0.917247 -0.352787 -1.834493 -0.635017 -2.75174 -0.846689 c -1.763936 -0.493902 -3.527872 -0.987804 -5.080135 -1.340591 c -1.622821 -0.352787 -3.03397 -0.635017 -4.374561 -0.917247 c -1.340591 -0.211672 -2.46951 -0.423345 -3.386757 -0.564459 c -0.917247 -0.141115 -1.693378 -0.211672 -2.18728 -0.28223 c -0.493902 -0.070557 -0.776132 -0.070557 -0.776132 -0.070557 l 0.070558 -2.187281 z" stroke-linecap="round" />
</g>
		<g transform="matrix(0.78 0 0 0.78 -177.21 -19.17)"  >
<path style="stroke: none; stroke-width: 1; stroke-dasharray: none; stroke-linecap: butt; stroke-dashoffset: 0; stroke-linejoin: miter; stroke-miterlimit: 4; fill: rgb(119,70,33); fill-rule: nonzero; opacity: 1;"  transform=" translate(-285.19, -487.48)" d="M 285.193137 487.481293 m -15.240405 0 a 15.240405 15.240405 0 1 0 30.48081 0 a 15.240405 15.240405 0 1 0 -30.48081 0 Z" stroke-linecap="round" />
</g>
		<g transform="matrix(0.78 0 0 0.78 -146.01 -45.36)"  >
<path style="stroke: none; stroke-width: 1; stroke-dasharray: none; stroke-linecap: butt; stroke-dashoffset: 0; stroke-linejoin: miter; stroke-miterlimit: 4; fill: rgb(119,70,33); fill-rule: nonzero; opacity: 1;"  transform=" translate(-325.13, -453.97)" d="M 325.128643 453.966513 m -15.240405 0 a 15.240405 15.240405 0 1 0 30.48081 0 a 15.240405 15.240405 0 1 0 -30.48081 0 Z" stroke-linecap="round" />
</g>
		<g transform="matrix(0.78 0 0 0.78 -7.65 -42.93)"  >
<path style="stroke: none; stroke-width: 1; stroke-dasharray: none; stroke-linecap: butt; stroke-dashoffset: 0; stroke-linejoin: miter; stroke-miterlimit: 4; fill: rgb(119,70,33); fill-rule: nonzero; opacity: 1;"  transform=" translate(-502.23, -457.07)" d="M 502.227796 457.07104 m -15.240405 0 a 15.240405 15.240405 0 1 0 30.48081 0 a 15.240405 15.240405 0 1 0 -30.48081 0 Z" stroke-linecap="round" />
</g>
		<g transform="matrix(0.78 0 0 0.78 -21.14 355.83)"  >
<path style="stroke: none; stroke-width: 1; stroke-dasharray: none; stroke-linecap: butt; stroke-dashoffset: 0; stroke-linejoin: miter; stroke-miterlimit: 4; fill: rgb(91,43,32); fill-rule: nonzero; opacity: 1;"  transform=" translate(-485.15, -967.52)" d="M 354.409977 930.581961 h 261.485841 v 73.873631 H 354.409977 z" stroke-linecap="round" />
</g>
		<g transform="matrix(0.78 0 0 0.78 -92.39 -293.35)"  >
<path style="stroke: none; stroke-width: 1; stroke-dasharray: none; stroke-linecap: butt; stroke-dashoffset: 0; stroke-linejoin: miter; stroke-miterlimit: 4; fill: rgb(119,70,33); fill-rule: nonzero; opacity: 1;"  transform=" translate(-393.89, -136.71)" d="M 297.47013 101.249914 c 2.046166 0 4.021774 0.423345 5.997382 0.917246 c 0.987804 0.28223 1.975608 0.564459 2.963412 0.917247 c 0.987804 0.352787 1.905051 0.705574 2.892855 1.128919 c 0.987804 0.423345 1.905051 0.846689 2.822297 1.340591 c 0.917247 0.493902 1.834493 0.987804 2.75174 1.552264 c 0.917247 0.564459 1.763936 1.128919 2.610625 1.763935 c 0.846689 0.635017 1.693378 1.270034 2.540067 1.975609 c 1.622821 1.340591 3.245642 2.822297 4.727348 4.37456 c 0.705574 0.776132 1.481706 1.552263 2.116723 2.398953 c 0.635017 0.846689 1.340591 1.693378 1.975608 2.540067 l 1.834493 2.681183 c 0.564459 0.917247 1.128919 1.834493 1.693379 2.822297 c 0.564459 0.917247 0.987804 1.905051 1.552263 2.892855 l 0.705575 1.481706 l 0.635016 1.481706 c 0.423345 0.987804 0.917247 1.975608 1.199477 3.033969 l 1.058361 3.104527 c 0.352787 1.058361 0.564459 2.046166 0.917247 3.104527 c 0.28223 1.058361 0.564459 2.116723 0.776132 3.104527 l 0.635016 3.175085 c 0.211672 1.058361 0.28223 2.116723 0.423345 3.175084 c 0.352787 2.116723 0.423345 4.233446 0.564459 6.350169 c 0.070557 1.058361 0.070557 2.116723 0.070558 3.175084 v 3.175085 c -0.070557 2.116723 -0.211672 4.162888 -0.28223 6.279611 c -0.211672 2.046166 -0.423345 4.092331 -0.705574 6.138497 c -0.352787 2.046166 -0.635017 4.021774 -1.058362 6.067939 l -0.141114 0.705574 l -0.141115 0.493902 l -2.963412 8.890236 l -1.411149 4.374561 l -1.340591 4.304004 c -0.423345 1.411149 -0.846689 2.892855 -1.270034 4.304003 c -0.423345 1.411149 -0.846689 2.892855 -1.199476 4.304003 c -0.776132 2.892855 -1.411149 5.715152 -1.975608 8.608007 c -0.28223 1.411149 -0.564459 2.892855 -0.776132 4.37456 c -0.211672 1.481706 -0.423345 2.892855 -0.56446 4.374561 c -0.070557 0.705574 -0.141115 1.481706 -0.211672 2.187281 c -0.070557 0.776132 -0.070557 1.481706 -0.141115 2.18728 c -0.070557 0.776132 -0.070557 1.481706 -0.070557 2.257838 V 236.155722 l 0.070557 1.128919 l 0.070558 1.128919 l 0.070557 1.128919 l 0.211672 2.328395 c 0.070557 0.776132 0.141115 1.552263 0.28223 2.328396 c 0.211672 1.552263 0.493902 3.104527 0.846689 4.727348 l 0.56446 2.398952 c 0.211672 0.776132 0.423345 1.622821 0.635017 2.46951 c -0.635017 -0.564459 -1.270034 -1.058361 -1.905051 -1.622821 c -0.635017 -0.564459 -1.199476 -1.199476 -1.834493 -1.834493 c -0.635017 -0.635017 -1.128919 -1.270034 -1.693379 -1.905051 c -0.564459 -0.635017 -1.058361 -1.340591 -1.552263 -2.046165 c -0.987804 -1.411149 -1.975608 -2.892855 -2.822297 -4.445118 c -0.423345 -0.776132 -0.846689 -1.552263 -1.199477 -2.328395 l -0.564459 -1.199477 l -0.493902 -1.199476 c -0.352787 -0.846689 -0.705574 -1.622821 -0.987804 -2.46951 l -0.846689 -2.540068 c -0.28223 -0.846689 -0.493902 -1.693378 -0.705575 -2.540067 c -0.211672 -0.846689 -0.423345 -1.693378 -0.635017 -2.610625 c -0.352787 -1.763936 -0.635017 -3.457314 -0.917246 -5.22125 c -0.211672 -1.763936 -0.423345 -3.527872 -0.493902 -5.291807 c -0.211672 -3.527872 -0.141115 -7.055743 0.070557 -10.513058 c 0.141115 -1.763936 0.28223 -3.457314 0.493902 -5.150692 c 0.211672 -1.693378 0.423345 -3.386757 0.705575 -5.080135 c 0.28223 -1.693378 0.564459 -3.386757 0.917246 -5.009578 s 0.705574 -3.316199 1.128919 -4.93902 c 0.352787 -1.622821 0.846689 -3.245642 1.270034 -4.797905 c 0.423345 -1.622821 0.917247 -3.175084 1.340591 -4.727348 l -0.28223 1.270034 c 0.211672 -1.763936 0.493902 -3.457314 0.776132 -5.22125 l 0.635017 -5.150693 l 0.423345 -5.150692 c 0.070557 -1.693378 0.211672 -3.386757 0.211672 -5.080135 c 0 -1.693378 0.070557 -3.386757 0 -5.080135 l -0.070558 -2.540068 l -0.141114 -2.46951 c 0 -0.423345 -0.070557 -0.846689 -0.070558 -1.270034 l -0.141115 -1.270034 c -0.070557 -0.846689 -0.141115 -1.693378 -0.282229 -2.46951 l -0.352788 -2.46951 c -0.141115 -0.846689 -0.28223 -1.622821 -0.493902 -2.46951 l -0.211672 -1.199476 l -0.28223 -1.199477 c -0.211672 -0.776132 -0.352787 -1.622821 -0.635017 -2.398952 c -0.211672 -0.776132 -0.423345 -1.622821 -0.705574 -2.398953 l -0.846689 -2.398953 l -0.917247 -2.328395 l -1.058361 -2.328395 c -0.352787 -0.776132 -0.776132 -1.552263 -1.128919 -2.328395 c -0.423345 -0.776132 -0.846689 -1.481706 -1.270034 -2.257838 c -0.423345 -0.776132 -0.917247 -1.481706 -1.340591 -2.257838 c -0.493902 -0.705574 -0.987804 -1.481706 -1.481706 -2.18728 c -0.987804 -1.481706 -2.116723 -2.892855 -3.316199 -4.304004 c -0.564459 -0.705574 -1.199476 -1.411149 -1.834494 -2.116722 c -0.635017 -0.705574 -1.270034 -1.411149 -1.975608 -2.046166 c -1.481706 -1.411149 -2.892855 -2.681182 -4.445118 -3.951216 z M 490.30359 19.614966 c -1.411149 1.199476 -2.681182 2.398953 -3.951216 3.598429 c -0.635017 0.635017 -1.270034 1.199476 -1.834493 1.834493 c -0.564459 0.635017 -1.199476 1.199476 -1.763936 1.905051 l -0.846689 0.917246 c -0.28223 0.352787 -0.564459 0.635017 -0.84669 0.987804 c -0.564459 0.635017 -1.058361 1.270034 -1.622821 1.905051 c -0.493902 0.635017 -0.987804 1.340591 -1.552263 1.975608 l -1.411149 1.975608 l -1.340591 1.975608 l -1.270034 2.046166 l -1.128919 2.046165 c -0.352787 0.705574 -0.705574 1.411149 -1.058361 2.046166 c -0.635017 1.340591 -1.270034 2.75174 -1.763936 4.162888 l -0.423344 1.058362 l -0.352787 1.058361 c -0.211672 0.705574 -0.493902 1.411149 -0.635017 2.116723 c -0.141115 0.705574 -0.423345 1.411149 -0.56446 2.116723 l -0.423344 2.116723 c -0.141115 0.705574 -0.211672 1.411149 -0.28223 2.116723 c -0.141115 0.705574 -0.141115 1.411149 -0.211672 2.116723 c -0.141115 1.411149 -0.141115 2.822297 -0.211673 4.233446 c 0 0.705574 0.070557 1.411149 0.070558 2.116723 v 1.058361 c 0 0.352787 0.070557 0.705574 0.141115 1.058362 l 0.211672 2.116723 l 0.352787 2.18728 c 0.141115 1.411149 0.564459 2.892855 0.776132 4.304003 c 0.141115 0.705574 0.352787 1.411149 0.493902 2.187281 c 0.211672 0.705574 0.352787 1.411149 0.564459 2.18728 c 0.423345 1.481706 0.917247 2.892855 1.340591 4.304003 l -0.352787 -0.917246 c 0.705574 1.693378 1.481706 3.386757 2.257838 5.150692 c 0.705574 1.763936 1.481706 3.527872 2.18728 5.291807 c 1.481706 3.598429 2.822297 7.337973 4.021774 11.148075 c 0.635017 1.905051 1.128919 3.880659 1.693378 5.785709 c 0.493902 1.975608 0.987804 3.951216 1.340592 5.997382 c 0.211672 0.987804 0.352787 2.046166 0.564459 3.033969 c 0.141115 1.058361 0.28223 2.046166 0.423345 3.104527 c 0.28223 2.046166 0.423345 4.162888 0.493902 6.209054 c 0.070557 2.116723 0.070557 4.162888 0 6.279612 s -0.28223 4.162888 -0.56446 6.279611 c -0.28223 2.046166 -0.705574 4.092331 -1.199476 6.138496 c -0.493902 2.046166 -1.058361 4.021774 -1.763936 5.926825 c -0.352787 0.987804 -0.705574 1.905051 -1.128919 2.892854 l -1.270034 2.822298 c -0.917247 1.834493 -1.834493 3.598429 -2.892854 5.291807 c -0.493902 0.846689 -1.058361 1.693378 -1.622821 2.540067 l -0.846689 1.199477 l -0.776132 1.128919 c -1.199476 1.552263 -2.540068 3.104527 -3.880659 4.515675 c 0.211672 -1.975608 0.635017 -3.880659 0.846689 -5.785709 l 0.211673 -1.411149 l 0.141114 -1.411148 c 0.070557 -0.917247 0.28223 -1.834493 0.28223 -2.822298 c 0.070557 -0.917247 0.211672 -1.834493 0.211673 -2.751739 l 0.141114 -2.75174 l 0.070558 -2.681183 v -2.681182 c -0.070557 -1.763936 -0.141115 -3.527872 -0.28223 -5.291807 c 0 -0.846689 -0.141115 -1.763936 -0.211672 -2.610625 c -0.070557 -0.846689 -0.211672 -1.693378 -0.352787 -2.540068 c -0.211672 -1.693378 -0.564459 -3.386757 -0.84669 -5.080135 c -0.352787 -1.693378 -0.705574 -3.316199 -1.128918 -4.93902 c -0.423345 -1.622821 -0.917247 -3.316199 -1.411149 -4.93902 s -1.058361 -3.245642 -1.622821 -4.868463 l -0.846689 -2.46951 l -0.917247 -2.46951 l -0.987804 -2.46951 l -0.987804 -2.46951 l -2.116723 -4.939021 l -2.18728 -5.009577 l -2.257838 -5.080135 c -0.776132 -1.693378 -1.481706 -3.457314 -2.257838 -5.22125 l -0.211672 -0.56446 l -0.070557 -0.352787 c -0.564459 -1.905051 -1.058361 -3.739544 -1.552264 -5.644594 c -0.211672 -0.987804 -0.423345 -1.905051 -0.564459 -2.892855 c -0.211672 -0.987804 -0.423345 -1.905051 -0.493902 -2.892855 c -0.28223 -1.975608 -0.564459 -3.951216 -0.635017 -5.997381 c -0.070557 -0.987804 -0.141115 -2.046166 -0.141115 -3.03397 l 0.070557 -3.033969 c 0 -0.493902 0 -0.987804 0.070558 -1.552264 l 0.141115 -1.552263 c 0.141115 -0.987804 0.211672 -2.046166 0.352787 -3.03397 c 0.352787 -2.046166 0.705574 -4.092331 1.270033 -6.067939 c 0.493902 -1.975608 1.199476 -3.951216 1.905051 -5.856267 c 0.423345 -0.917247 0.846689 -1.905051 1.270034 -2.822297 c 0.423345 -0.917247 0.917247 -1.834493 1.411148 -2.75174 c 0.493902 -0.917247 0.987804 -1.763936 1.552264 -2.610625 l 0.846689 -1.270034 c 0.28223 -0.423345 0.564459 -0.846689 0.917247 -1.199476 c 1.128919 -1.622821 2.46951 -3.175084 3.810101 -4.65679 c 0.705574 -0.705574 1.340591 -1.411149 2.046166 -2.116723 c 0.705574 -0.635017 1.411149 -1.340591 2.18728 -1.975608 c 0.776132 -0.635017 1.481706 -1.199476 2.257838 -1.834494 l 2.328395 -1.693378 c 1.622821 -1.058361 3.245642 -2.046166 4.868463 -2.892855 c 1.693378 -0.846689 3.386757 -1.622821 5.080135 -2.257837 c 1.693378 -0.705574 3.457314 -1.199476 5.291807 -1.693379 c 1.693378 -0.211672 3.527872 -0.564459 5.362365 -0.705574 z" stroke-linecap="round" />
</g>
</g>
</g>


<g transform="matrix(0.23 0 0 0.23 231 321)"  >
<g style=""   >
		<g transform="matrix(6.25 0 0 6.25 -18.54 252.72)"  >
<path style="stroke: none; stroke-width: 1; stroke-dasharray: none; stroke-linecap: butt; stroke-dashoffset: 0; stroke-linejoin: miter; stroke-miterlimit: 4; fill: rgb(1,87,155); fill-rule: nonzero; opacity: 1;"  transform=" translate(-61.03, -104.44)" d="M 118.03 102.32 L 72.29 123 c -2.82 1.33 -5.76 1.2 -8.46 -0.36 L 6.09 93.32 c -1.65 -1.06 -2.14 -2.61 -2.04 -3.69 c 0.1 -1.08 0.35 -2.25 3.25 -3.09 l 4.28 -1.58 l 57.92 31.57 l 41.16 -16.82 l 7.37 2.61 z" stroke-linecap="round" />
</g>
		<g transform="matrix(6.25 0 0 6.25 -152.99 210.42)"  >
<path style="stroke: none; stroke-width: 1; stroke-dasharray: none; stroke-linecap: butt; stroke-dashoffset: 0; stroke-linejoin: miter; stroke-miterlimit: 4; fill: rgb(245,245,245); fill-rule: nonzero; opacity: 1;"  transform=" translate(-39.52, -97.67)" d="M 71.74 119.69 a 7.951 7.951 0 0 1 -7.26 -0.26 L 8.11 91.03 c -0.8 -0.44 -1.04 -1.45 -0.56 -2.23 c 1.24 -2.05 3.52 -8.53 -0.24 -13.91 l 63.66 30.65 l 0.77 14.15 z" stroke-linecap="round" />
</g>
		<g transform="matrix(6.25 0 0 6.25 181.29 251.49)"  >
<path style="stroke: none; stroke-width: 1; stroke-dasharray: none; stroke-linecap: butt; stroke-dashoffset: 0; stroke-linejoin: miter; stroke-miterlimit: 4; fill: rgb(148,198,214); fill-rule: nonzero; opacity: 1;"  transform=" translate(-93.01, -104.24)" d="M 115.59 99.98 l -43.85 19.71 c -1.45 0.63 -4.34 1.75 -7.67 -0.49 c 2.63 0.19 4.48 -0.9 5.43 -2.67 c 0.93 -1.72 0.65 -4.54 -0.48 -6.13 c -0.69 -0.96 -2.54 -2.49 -3.35 -3.35 L 113.1 88.5 c 4.2 -1.73 8.14 0.86 8.77 4.01 c 0.7 3.56 -3.84 6.47 -6.28 7.47 z" stroke-linecap="round" />
</g>
		<g transform="matrix(6.25 0 0 6.25 -19.43 157.94)"  >
<path style="stroke: none; stroke-width: 1; stroke-dasharray: none; stroke-linecap: butt; stroke-dashoffset: 0; stroke-linejoin: miter; stroke-miterlimit: 4; fill: rgb(1,87,155); fill-rule: nonzero; opacity: 1;"  transform=" translate(-60.89, -89.27)" d="M 117.78 86.96 l -45.27 20.2 c -2.85 1.13 -6.04 0.98 -8.77 -0.4 L 5.9 77.38 c -0.56 -0.28 -1.39 -1.05 -1.72 -2.1 c -0.54 -1.75 0.14 -3.95 2.19 -4.65 l 62.68 31.95 l 42.92 -18.37 l 5.81 2.75 z" stroke-linecap="round" />
</g>
		<g transform="matrix(6.25 0 0 6.25 -5.83 88.46)"  >
<path style="stroke: none; stroke-width: 1; stroke-dasharray: none; stroke-linecap: butt; stroke-dashoffset: 0; stroke-linejoin: miter; stroke-miterlimit: 4; fill: rgb(0,145,234); fill-rule: nonzero; opacity: 1;"  transform=" translate(-63.07, -78.15)" d="M 121.19 89.89 l -4.93 -1.79 l -10.16 0.59 l -33.58 14.99 c -2.85 1.13 -6.04 0.98 -8.77 -0.4 L 5.9 73.91 c -1.49 -0.76 -1.17 -2.97 0.47 -3.28 l 41.69 -18.65 c 1.19 -0.22 2.41 -0.09 3.52 0.38 l 59.49 28.36 s 9.45 6.47 10.12 9.17 z" stroke-linecap="round" />
</g>
		<g transform="matrix(6.25 0 0 6.25 109.15 42.16)"  >
<path style="stroke: none; stroke-width: 1; stroke-dasharray: none; stroke-linecap: butt; stroke-dashoffset: 0; stroke-linejoin: miter; stroke-miterlimit: 4; fill: rgb(97,97,97); fill-rule: nonzero; opacity: 1;"  transform=" translate(-81.47, -70.74)" d="M 105.53 88.98 s 6.26 -2.45 11.18 -2.23 c 4.92 0.22 6.63 3.67 6.63 3.67 c -0.93 -4.23 -5.3 -6.39 -5.3 -6.39 l -65 -32.73 c -0.45 -0.19 -2.11 -0.58 -4.66 0.47 c -2.06 0.85 -8.79 4 -8.79 4 l 65.94 33.21 z" stroke-linecap="round" />
</g>
		<g transform="matrix(6.25 0 0 6.25 316.7 205.19)"  >
<path style="stroke: none; stroke-width: 1; stroke-dasharray: none; stroke-linecap: butt; stroke-dashoffset: 0; stroke-linejoin: miter; stroke-miterlimit: 4; fill: rgb(66,66,66); fill-rule: nonzero; opacity: 1;"  transform=" translate(-114.67, -96.83)" d="M 123.62 91.22 c -0.47 -1.87 -1.63 -3.87 -3.77 -4.84 c -2.82 -1.27 -6.84 -0.94 -9.41 0.4 l -4.91 2.18 v 3.46 l 6.21 -2.76 c 6.04 -2.69 8.72 1.34 8.95 2.29 c 0.96 3.87 -0.9 6.11 -6.39 8.63 l -8.92 4.02 v 3.48 l 10.26 -4.57 c 4.54 -1.82 9.72 -5.24 7.98 -12.29 z" stroke-linecap="round" />
</g>
		<g transform="matrix(6.25 0 0 6.25 -232.44 91.12)"  >
<path style="stroke: none; stroke-width: 1; stroke-dasharray: none; stroke-linecap: butt; stroke-dashoffset: 0; stroke-linejoin: miter; stroke-miterlimit: 4; fill: rgb(1,87,155); fill-rule: nonzero; opacity: 1;"  transform=" translate(-26.81, -78.58)" d="M 33.01 90.31 L 15.74 66.44 l 2.71 -1.21 l 19.43 26.7 z" stroke-linecap="round" />
</g>
		<g transform="matrix(6.25 0 0 6.25 92.54 191.47)"  >
<path style="stroke: none; stroke-width: 1; stroke-dasharray: none; stroke-linecap: butt; stroke-dashoffset: 0; stroke-linejoin: miter; stroke-miterlimit: 4; fill: rgb(1,87,155); fill-rule: nonzero; opacity: 1;"  transform=" translate(-78.81, -94.64)" d="M 55.16 101.31 l -3.08 -2.44 l 53.45 -10.91 v 1.75 l -7.49 2.84 z" stroke-linecap="round" />
</g>
		<g transform="matrix(6.25 0 0 6.25 -2 -21.34)"  >
<path style="stroke: none; stroke-width: 1; stroke-dasharray: none; stroke-linecap: butt; stroke-dashoffset: 0; stroke-linejoin: miter; stroke-miterlimit: 4; fill: rgb(156,204,101); fill-rule: nonzero; opacity: 1;"  transform=" translate(-63.68, -60.58)" d="M 14.8 46.18 L 82.31 34.9 l 29.49 32.47 c 1.49 1.57 0.68 4.17 -1.44 4.6 l -69.7 14.3 L 14.8 46.18 z" stroke-linecap="round" />
</g>
		<g transform="matrix(6.25 0 0 6.25 79.57 82.84)"  >
<path style="stroke: none; stroke-width: 1; stroke-dasharray: none; stroke-linecap: butt; stroke-dashoffset: 0; stroke-linejoin: miter; stroke-miterlimit: 4; fill: rgb(104,159,56); fill-rule: nonzero; opacity: 1;"  transform=" translate(-76.73, -77.25)" d="M 110.36 69.17 L 41.14 83.19 l -0.22 3.3 l 69.44 -14.24 c 1.96 -0.41 2.78 -2.65 1.71 -4.23 c -0.38 0.56 -0.96 1 -1.71 1.15 z" stroke-linecap="round" />
</g>
		<g transform="matrix(6.25 0 0 6.25 86.05 144.23)"  >
<path style="stroke: none; stroke-width: 1; stroke-dasharray: none; stroke-linecap: butt; stroke-dashoffset: 0; stroke-linejoin: miter; stroke-miterlimit: 4; fill: rgb(104,159,56); fill-rule: nonzero; opacity: 1;"  transform=" translate(-77.77, -87.08)" d="M 114.09 84.3 c 0.73 1.16 0.07 2.69 -1.27 2.96 L 49.1 100.18 c -3.83 0.79 -7.59 -1.72 -7.93 -5.62 c -0.29 -3.3 1.94 -6.29 5.19 -6.97 l 61.28 -13.76 l 6.45 10.47 z" stroke-linecap="round" />
</g>
		<g transform="matrix(6.25 0 0 6.25 -181.43 50.63)"  >
<path style="stroke: none; stroke-width: 1; stroke-dasharray: none; stroke-linecap: butt; stroke-dashoffset: 0; stroke-linejoin: miter; stroke-miterlimit: 4; fill: rgb(97,97,97); fill-rule: nonzero; opacity: 1;"  transform=" translate(-34.97, -72.1)" d="M 55.59 80.1 L 30.21 43.78 l -14.48 3.83 c -3.35 3.33 -2.1 8.8 -2.1 8.8 S 35.8 91.99 39.3 96.54 c 3.5 4.55 8.61 3.84 8.61 3.84 l 8.63 -1.74 l -0.9 -16.1 l -0.05 -2.44 z" stroke-linecap="round" />
</g>
		<g transform="matrix(6.25 0 0 6.25 -199.32 53.3)"  >
<path style="stroke: none; stroke-width: 1; stroke-dasharray: none; stroke-linecap: butt; stroke-dashoffset: 0; stroke-linejoin: miter; stroke-miterlimit: 4; fill: rgb(66,66,66); fill-rule: nonzero; opacity: 1;"  transform=" translate(-32.11, -72.53)" d="M 55.59 80.34 L 43.4 82.86 c -3.33 0.75 -3.93 3.88 -3.93 3.88 L 10.04 44.57 s -4.19 5.07 -1.41 9.38 L 39.3 96.54 c 3.35 4.77 8.61 3.88 8.61 3.88 l 8.63 -1.74 l -0.89 -15.78 l -0.06 -2.56 z" stroke-linecap="round" />
</g>
		<g transform="matrix(6.25 0 0 6.25 76.41 130.54)"  >
<path style="stroke: none; stroke-width: 1; stroke-dasharray: none; stroke-linecap: butt; stroke-dashoffset: 0; stroke-linejoin: miter; stroke-miterlimit: 4; fill: rgb(185,228,234); fill-rule: nonzero; opacity: 1;"  transform=" translate(-76.23, -84.89)" d="M 110.25 83 c 0.31 0.68 -0.09 1.47 -0.82 1.62 L 48.5 97.12 c -3.83 0.79 -6.54 -1.75 -6.4 -5.21 c 0.18 -4.37 2.63 -6.22 5.87 -6.89 l 61.23 -12.51 s -2.08 2.34 -0.49 6.72 c 0.54 1.51 1.12 2.85 1.54 3.77 z" stroke-linecap="round" />
</g>
		<g transform="matrix(6.25 0 0 6.25 -199.04 7.69)"  >
<path style="stroke: rgb(66,66,66); stroke-width: 2.07; stroke-dasharray: none; stroke-linecap: butt; stroke-dashoffset: 0; stroke-linejoin: miter; stroke-miterlimit: 10; fill: none; fill-rule: nonzero; opacity: 1;"  transform=" translate(-32.16, -65.23)" d="M 45.21 83.7 L 19.1 46.76" stroke-linecap="round" />
</g>
		<g transform="matrix(6.25 0 0 6.25 -201.75 -10.91)"  >
<path style="stroke: none; stroke-width: 1; stroke-dasharray: none; stroke-linecap: butt; stroke-dashoffset: 0; stroke-linejoin: miter; stroke-miterlimit: 4; fill: rgb(66,66,66); fill-rule: nonzero; opacity: 1;"  transform=" translate(-31.72, -62.26)" d="M 47.26 67.95 L 13.68 51.03 l -1.36 2.68 l 38.8 19.77 z" stroke-linecap="round" />
</g>
		<g transform="matrix(6.25 0 0 6.25 87.66 43.38)"  >
<path style="stroke: none; stroke-width: 1; stroke-dasharray: none; stroke-linecap: butt; stroke-dashoffset: 0; stroke-linejoin: miter; stroke-miterlimit: 4; fill: rgb(104,159,56); fill-rule: nonzero; opacity: 1;"  transform=" translate(-78.03, -70.94)" d="M 108.79 64.03 l -2.46 -2.7 L 68.5 78.69 L 47.26 68.18 l 3.62 5.18 l 14.07 7.19 l 10.48 -1.61 z" stroke-linecap="round" />
</g>
		<g transform="matrix(6.25 0 0 6.25 -18.57 -26.52)"  >
<path style="stroke: none; stroke-width: 1; stroke-dasharray: none; stroke-linecap: butt; stroke-dashoffset: 0; stroke-linejoin: miter; stroke-miterlimit: 4; fill: rgb(198,40,40); fill-rule: nonzero; opacity: 1;"  transform=" translate(-61.03, -59.76)" d="M 118.02 57.35 L 72.29 78.03 c -2.82 1.33 -5.76 1.2 -8.46 -0.36 L 6.09 48.35 c -1.65 -1.06 -2.14 -2.61 -2.04 -3.69 s 0.35 -2.25 3.25 -3.09 l 2.71 -1 l 59.32 29.11 l 48.17 -19.93 l 0.52 7.6 z" stroke-linecap="round" />
</g>
		<g transform="matrix(6.25 0 0 6.25 -153.05 -70.64)"  >
<path style="stroke: none; stroke-width: 1; stroke-dasharray: none; stroke-linecap: butt; stroke-dashoffset: 0; stroke-linejoin: miter; stroke-miterlimit: 4; fill: rgb(245,245,245); fill-rule: nonzero; opacity: 1;"  transform=" translate(-39.51, -52.7)" d="M 71.73 74.72 a 7.951 7.951 0 0 1 -7.26 -0.26 L 8.1 46.06 c -0.8 -0.44 -1.04 -1.45 -0.56 -2.23 c 1.24 -2.05 3.52 -8.53 -0.24 -13.91 l 62.24 31.66 l 2.19 13.14 z" stroke-linecap="round" />
</g>
		<g transform="matrix(6.25 0 0 6.25 181.23 -29.57)"  >
<path style="stroke: none; stroke-width: 1; stroke-dasharray: none; stroke-linecap: butt; stroke-dashoffset: 0; stroke-linejoin: miter; stroke-miterlimit: 4; fill: rgb(148,198,214); fill-rule: nonzero; opacity: 1;"  transform=" translate(-93, -59.27)" d="M 115.58 55.01 L 71.73 74.72 c -1.45 0.63 -4.34 1.75 -7.67 -0.49 c 2.63 0.19 4.48 -0.9 5.43 -2.67 c 0.93 -1.72 0.65 -4.54 -0.48 -6.13 c -0.69 -0.96 -2.54 -2.49 -3.35 -3.35 l 47.43 -18.55 c 4.2 -1.73 8.14 0.86 8.77 4.01 c 0.7 3.56 -3.84 6.47 -6.28 7.47 z" stroke-linecap="round" />
</g>
		<g transform="matrix(6.25 0 0 6.25 -19.54 -158.21)"  >
<path style="stroke: none; stroke-width: 1; stroke-dasharray: none; stroke-linecap: butt; stroke-dashoffset: 0; stroke-linejoin: miter; stroke-miterlimit: 4; fill: rgb(198,40,40); fill-rule: nonzero; opacity: 1;"  transform=" translate(-60.87, -38.69)" d="M 117.78 41.99 l -45.27 20.2 c -2.85 1.13 -6.04 0.98 -8.77 -0.4 L 5.89 32.41 c -0.6 -0.3 -1.5 -1.07 -1.79 -2.16 c -0.43 -1.62 0.13 -3.75 2.26 -4.59 l 53.01 -11.23 l 58.41 27.56 z" stroke-linecap="round" />
</g>
		<g transform="matrix(6.25 0 0 6.25 -5.69 -192.6)"  >
<path style="stroke: none; stroke-width: 1; stroke-dasharray: none; stroke-linecap: butt; stroke-dashoffset: 0; stroke-linejoin: miter; stroke-miterlimit: 4; fill: rgb(244,67,54); fill-rule: nonzero; opacity: 1;"  transform=" translate(-63.09, -33.18)" d="M 121.18 44.92 l -4.93 -1.79 l -10.16 0.59 l -33.58 14.99 c -2.85 1.13 -6.04 0.98 -8.77 -0.4 L 5.89 28.93 c -1.49 -0.76 -0.96 -2.77 0.47 -3.28 l 41.7 -18.64 c 1.19 -0.22 2.41 -0.09 3.52 0.38 l 59.49 28.36 s 9.44 6.46 10.11 9.17 z" stroke-linecap="round" />
</g>
		<g transform="matrix(6.25 0 0 6.25 109.21 -238.97)"  >
<path style="stroke: none; stroke-width: 1; stroke-dasharray: none; stroke-linecap: butt; stroke-dashoffset: 0; stroke-linejoin: miter; stroke-miterlimit: 4; fill: rgb(97,97,97); fill-rule: nonzero; opacity: 1;"  transform=" translate(-81.47, -25.76)" d="M 105.53 44 s 5.21 -1.83 10.13 -1.61 c 4.92 0.22 7.69 3.05 7.69 3.05 c -1.01 -4.52 -5.3 -6.39 -5.3 -6.39 l -65 -32.73 c -0.45 -0.19 -2.11 -0.58 -4.66 0.47 c -2.06 0.85 -8.79 4 -8.79 4 L 105.53 44 z" stroke-linecap="round" />
</g>
		<g transform="matrix(6.25 0 0 6.25 99.31 -246.32)"  >
<path style="stroke: none; stroke-width: 1; stroke-dasharray: none; stroke-linecap: butt; stroke-dashoffset: 0; stroke-linejoin: miter; stroke-miterlimit: 4; fill: rgb(66,66,66); fill-rule: nonzero; opacity: 1;"  transform=" translate(-79.89, -24.59)" d="M 111.48 41.86 L 44.97 8.31 l 2.2 -0.99 l 67.64 33.9 z" stroke-linecap="round" />
</g>
		<g transform="matrix(6.25 0 0 6.25 316.65 -75.72)"  >
<path style="stroke: none; stroke-width: 1; stroke-dasharray: none; stroke-linecap: butt; stroke-dashoffset: 0; stroke-linejoin: miter; stroke-miterlimit: 4; fill: rgb(66,66,66); fill-rule: nonzero; opacity: 1;"  transform=" translate(-114.66, -51.88)" d="M 123.61 46.25 c -0.47 -1.87 -1.26 -3.68 -3.49 -4.62 c -2.85 -1.2 -5.45 -1.45 -9.69 0.18 l -4.91 2.18 v 3.46 l 6.21 -2.76 c 3.15 -1.48 7.79 -1.16 8.95 2.29 c 1.27 3.78 -0.9 6.11 -6.39 8.63 l -8.92 4.02 v 3.48 l 10.26 -4.57 c 4.55 -1.82 9.73 -5.24 7.98 -12.29 z" stroke-linecap="round" />
</g>
</g>
</g>


</svg>